<svg width="51" height="44" viewBox="0 0 51 44" fill="none" xmlns="http://www.w3.org/2000/svg">
<g clip-path="url(#clip0_43_71)">
<path d="M32.7966 25.2761V20.0806H23.3611V28.822H28.8752C27.9499 32.3294 25.5076 34.0792 21.5559 34.0792C18.6889 34.0792 16.4362 32.9537 14.7827 30.7106C13.1368 28.4674 12.3177 25.5767 12.3177 22.0308C12.3177 18.4849 13.0686 15.5711 14.5855 13.405C16.0949 11.2467 18.2641 10.1598 21.0932 10.1598C22.8757 10.1598 24.3775 10.63 25.5986 11.5781C26.8122 12.5186 27.601 13.7057 27.9499 15.124H39.6911C39.0312 10.3987 37.0364 6.69867 33.6991 4.01612C30.3694 1.34128 26.0082 0 20.6306 0C14.3504 0 9.34444 2.08129 5.60515 6.23616C1.86585 10.391 0 15.6559 0 22.0308C0 28.8066 1.91136 34.2565 5.74926 38.3882C9.20033 42.1345 13.7664 44 19.4625 44C25.1587 44 28.898 42.1731 31.3782 38.5116H31.492L31.4616 42.9979H40.5027V25.2761H32.7966Z" fill="#1A171B"/>
<path d="M51.0001 35.6594H43.7339V43.0441H51.0001V35.6594Z" fill="#A8C7E6"/>
</g>
<defs>
<clipPath id="clip0_43_71">
<rect width="51" height="44" fill="white"/>
</clipPath>
</defs>
</svg>
