<?xml version="1.0" encoding="UTF-8"?>
<svg id="Layer_2" data-name="Layer 2" xmlns="http://www.w3.org/2000/svg" viewBox="0 0 322.63 57.08">
  <defs>
    <style>
      .cls-1 {
        fill: #1a171b;
        stroke-width: 0px;
      }
    </style>
  </defs>
  <g id="Layer_1-2" data-name="Layer 1">
    <path class="cls-1" d="M43.24,32.79v-6.74h-12.44v11.34h7.27c-1.22,4.55-4.44,6.82-9.65,6.82-3.78,0-6.75-1.46-8.93-4.37-2.17-2.91-3.25-6.66-3.25-11.26s.99-8.38,2.99-11.19c1.99-2.8,4.85-4.21,8.58-4.21,2.35,0,4.33.61,5.94,1.84,1.6,1.22,2.64,2.76,3.1,4.6h15.48c-.87-6.13-3.5-10.93-7.9-14.41C40.04,1.74,34.29,0,27.2,0,18.92,0,12.32,2.7,7.39,8.09,2.46,13.48,0,20.31,0,28.58c0,8.79,2.52,15.86,7.58,21.22,4.55,4.86,10.57,7.28,18.08,7.28s12.44-2.37,15.71-7.12h.15l-.04,5.82h11.92v-22.99h-10.16Z"/>
    <path class="cls-1" d="M91.78,1h-16.32l-20.22,54.78h15.92s11.2-33.94,11.97-36.85h.15l11.8,36.85h17.01L91.78,1Z"/>
    <path class="cls-1" d="M140.28,42.07c-2.25,0-4.39.1-6.43.3v-.23l.84-.76c.56-.57,1.3-1.32,2.22-2.26.92-.95,1.76-1.86,2.53-2.72l20.3-23.37V1h-44.13v13.71h17.62c1.64,0,3.37-.1,5.21-.3v.23l-.69.69c-.46.41-1.04.98-1.76,1.72-.72.74-1.35,1.42-1.91,2.03l-20.46,23.52v13.18h47.58v-13.71h-20.92Z"/>
    <path class="cls-1" d="M211,8.32c-4.9-4.88-11.37-7.32-19.38-7.32h-25.29v54.78h24.6c8.58,0,15.29-2.37,20.15-7.12,4.85-4.76,7.27-11.47,7.27-20.16s-2.45-15.31-7.35-20.18ZM198.7,38.89c-2.27,2.42-5.3,3.64-9.08,3.64h-7.28V14.25h7.28c3.88,0,6.94,1.26,9.16,3.76,2.22,2.5,3.33,6,3.33,10.49s-1.14,7.96-3.41,10.39Z"/>
    <path class="cls-1" d="M251.91,1h-16.32l-20.22,54.78h15.93s11.19-33.94,11.96-36.85h.15l11.8,36.85h17.01L251.91,1Z"/>
    <path class="cls-1" d="M312.26,32.79v-6.74h-12.23v11.34h7.28c-1.23,4.55-4.44,6.82-9.65,6.82-3.78,0-6.76-1.46-8.93-4.37-2.17-2.91-3.26-6.66-3.26-11.26s1-8.38,2.99-11.19c1.99-2.8,4.85-4.21,8.58-4.21,2.35,0,4.33.61,5.94,1.84,1.61,1.22,2.64,2.76,3.1,4.6h15.48c-.87-6.13-3.5-10.93-7.89-14.41-4.39-3.47-10.14-5.21-17.24-5.21-8.27,0-14.88,2.7-19.81,8.09-4.93,5.39-7.39,12.22-7.39,20.49,0,8.79,2.53,15.86,7.59,21.22,4.54,4.86,10.57,7.28,18.08,7.28s12.43-2.37,15.7-7.12h.16l-.06,5.82h11.93v-22.99h-10.37Z"/>
  </g>
</svg>