<?xml version="1.0" encoding="UTF-8"?>
<svg id="Layer_2" data-name="Layer 2" xmlns="http://www.w3.org/2000/svg" viewBox="0 0 67.24 57.08">
  <defs>
    <style>
      .cls-1 {
        fill: #a8c7e6;
      }

      .cls-1, .cls-2 {
        stroke-width: 0px;
      }

      .cls-2 {
        fill: #1a171b;
      }
    </style>
  </defs>
  <g id="Layer_1-2" data-name="Layer 1">
    <g>
      <path class="cls-2" d="M43.24,32.79v-6.74h-12.44v11.34h7.27c-1.22,4.55-4.44,6.82-9.65,6.82-3.78,0-6.75-1.46-8.93-4.37-2.17-2.91-3.25-6.66-3.25-11.26s.99-8.38,2.99-11.19c1.99-2.8,4.85-4.21,8.58-4.21,2.35,0,4.33.61,5.94,1.84,1.6,1.22,2.64,2.76,3.1,4.6h15.48c-.87-6.13-3.5-10.93-7.9-14.41C40.04,1.74,34.29,0,27.2,0,18.92,0,12.32,2.7,7.39,8.09,2.46,13.48,0,20.31,0,28.58c0,8.79,2.52,15.86,7.58,21.22,4.55,4.86,10.57,7.28,18.08,7.28s12.44-2.37,15.71-7.12h.15l-.04,5.82h11.92v-22.99h-10.16Z"/>
      <rect class="cls-1" x="57.66" y="46.26" width="9.58" height="9.58"/>
    </g>
  </g>
</svg>