<?xml version="1.0" encoding="UTF-8"?>
<svg id="Layer_2" data-name="Layer 2" xmlns="http://www.w3.org/2000/svg" viewBox="0 0 521.67 138.74">
  <defs>
    <style>
      .cls-1 {
        fill: #80abd5;
      }

      .cls-2 {
        fill: #fb7d22;
      }

      .cls-3 {
        fill: #1c1c1c;
      }
    </style>
  </defs>
  <g id="Layer_1-2" data-name="Layer 1">
    <g>
      <g>
        <g>
          <g>
            <path class="cls-3" d="M49.65,132.41c-.24-.5-.63-.92-1.13-1.24-.52-.33-1.02-.57-1.51-.75-.49-.17-1.11-.36-1.87-.53-1.22-.27-2.04-.52-2.48-.7-.43-.2-.65-.53-.65-.96,0-.39.17-.7.55-.93.37-.24.85-.36,1.44-.36.65,0,1.16.14,1.55.43s.62.7.68,1.22h3.35c-.06-1.38-.59-2.44-1.59-3.16-1.01-.73-2.28-1.09-3.86-1.09s-2.96.36-3.96,1.06c-1.02.72-1.52,1.78-1.52,3.19,0,.56.1,1.06.3,1.51.2.45.45.8.72,1.08.29.26.68.52,1.16.73.47.23.9.4,1.29.5.37.11.86.24,1.45.39h.09s.04.01.06.03c.01,0,.03.01.07.03.78.19,1.31.33,1.58.42.27.1.55.26.82.47.27.23.4.5.4.85,0,.49-.22.85-.65,1.09-.43.23-.95.36-1.57.36-1.67,0-2.57-.66-2.71-1.97h-3.45c.04,1.51.62,2.66,1.72,3.46,1.09.8,2.59,1.21,4.45,1.21,1.65,0,3-.4,4.06-1.19,1.06-.8,1.59-1.91,1.59-3.3,0-.72-.11-1.32-.37-1.84Z"/>
            <path class="cls-3" d="M114.14,124.6v2.9h4.02v10.92h3.42v-10.92h4.06v-2.9h-11.5Z"/>
            <path class="cls-3" d="M198.78,124.6v9.01c0,.72-.2,1.28-.6,1.69-.4.42-.98.63-1.74.63-1.58,0-2.38-.76-2.38-2.27v-9.06h-3.42v8.95c0,1.64.49,2.9,1.47,3.79.99.89,2.43,1.34,4.34,1.34s3.33-.45,4.31-1.35c.96-.89,1.45-2.15,1.45-3.78v-8.95h-3.42Z"/>
            <path class="cls-3" d="M278.35,126.51c-1.16-1.28-2.71-1.91-4.64-1.91h-5.9v13.82h5.69c1.69,0,3.1-.42,4.22-1.25,1.59-1.22,2.4-3.09,2.4-5.57,0-2.11-.59-3.81-1.77-5.08ZM275.78,134.52c-.57.68-1.42,1.02-2.53,1.02h-2.01v-8.09h2.05c1.05,0,1.88.37,2.47,1.11.59.75.89,1.75.89,3.03s-.29,2.25-.88,2.93Z"/>
            <path class="cls-3" d="M345.28,124.6v13.82h3.42v-13.82h-3.42Z"/>
            <path class="cls-3" d="M425.66,126.35c-1.25-1.35-2.92-2.03-4.97-2.03s-3.72.68-4.97,2.03c-1.24,1.36-1.87,3.09-1.87,5.19s.63,3.83,1.87,5.18c1.25,1.35,2.9,2.03,4.97,2.03s3.72-.68,4.97-2.03,1.87-3.09,1.87-5.18-.62-3.82-1.87-5.19ZM423.19,134.74c-.57.82-1.39,1.22-2.48,1.22s-1.9-.4-2.48-1.24c-.59-.82-.88-1.88-.88-3.19s.29-2.38.88-3.2c.59-.83,1.42-1.25,2.48-1.25s1.91.42,2.48,1.25c.57.82.86,1.9.86,3.2s-.29,2.38-.86,3.2Z"/>
          </g>
          <path class="cls-3" d="M62.11,76.35v-9.68h-17.87v16.29h10.44c-1.75,6.54-6.38,9.8-13.86,9.8-5.43,0-9.69-2.1-12.83-6.28-3.12-4.18-4.67-9.57-4.67-16.17s1.42-12.04,4.29-16.07c2.86-4.02,6.97-6.05,12.32-6.05,3.38,0,6.22.88,8.53,2.64,2.3,1.75,3.79,3.96,4.45,6.61h22.23c-1.25-8.8-5.03-15.7-11.35-20.7-6.31-4.98-14.56-7.48-24.75-7.48-11.89,0-21.37,3.88-28.45,11.62C3.53,48.62,0,58.43,0,70.3c0,12.62,3.62,22.78,10.89,30.48,6.54,6.98,15.18,10.46,25.97,10.46s17.87-3.4,22.56-10.23h.22l-.06,8.36h17.12v-33.02h-14.59Z"/>
          <path class="cls-3" d="M131.82,30.69h-23.44l-29.04,78.68h22.87s16.09-48.75,17.19-52.93h.22l16.95,52.93h24.43l-29.17-78.68Z"/>
          <path class="cls-3" d="M201.48,89.68c-3.23,0-6.31.14-9.24.43v-.33l1.21-1.09c.8-.82,1.87-1.9,3.19-3.25,1.32-1.36,2.53-2.67,3.63-3.91l29.16-33.57v-17.28h-63.38v19.69h25.31c2.36,0,4.84-.14,7.48-.43v.33l-.99.99c-.66.59-1.49,1.41-2.53,2.47-1.03,1.06-1.94,2.04-2.74,2.92l-29.39,33.78v18.93h68.34v-19.69h-30.05Z"/>
          <path class="cls-3" d="M303.06,41.2c-7.04-7.01-16.33-10.51-27.84-10.51h-36.32v78.68h35.33c12.32,0,21.96-3.4,28.94-10.23,6.97-6.84,10.44-16.47,10.44-28.96s-3.52-21.99-10.56-28.98ZM285.39,85.11c-3.26,3.48-7.61,5.23-13.04,5.23h-10.46v-40.62h10.46c5.57,0,9.97,1.81,13.16,5.4,3.19,3.59,4.78,8.62,4.78,15.07s-1.64,11.43-4.9,14.92Z"/>
          <path class="cls-3" d="M361.82,30.69h-23.44l-29.04,78.68h22.88s16.07-48.75,17.18-52.93h.22l16.95,52.93h24.43l-29.17-78.68Z"/>
          <path class="cls-3" d="M448.5,76.35v-9.68h-17.57v16.29h10.46c-1.77,6.54-6.38,9.8-13.86,9.8-5.43,0-9.71-2.1-12.83-6.28-3.12-4.18-4.68-9.57-4.68-16.17s1.44-12.04,4.29-16.07c2.86-4.02,6.97-6.05,12.32-6.05,3.38,0,6.22.88,8.53,2.64,2.31,1.75,3.79,3.96,4.45,6.61h22.23c-1.25-8.8-5.03-15.7-11.33-20.7-6.31-4.98-14.56-7.48-24.76-7.48-11.88,0-21.37,3.88-28.45,11.62-7.08,7.74-10.61,17.55-10.61,29.43,0,12.62,3.63,22.78,10.9,30.48,6.52,6.98,15.18,10.46,25.97,10.46s17.85-3.4,22.55-10.23h.23l-.09,8.36h17.13v-33.02h-14.89Z"/>
        </g>
        <rect class="cls-1" x="473.51" y="92.2" width="17.17" height="17.17"/>
      </g>
      <path class="cls-2" d="M498.56,36.07c.23.41.65.7.78,1.2.03.12.29.34.45.51.11.11.12.06.07-.06-.17-.44.09-.14.2-.05.1.08.19.23.28.36.12.18.25.37.36.56l.37.58c.25.39.52.77.81,1.12.07.08.11.24.18.32.14.16.26.54.44.41.01,0,.04.01.06.02.1.04.24.36.28.26.04-.13-.19-.34-.3-.51-.31-.49-.63-.99-.94-1.5-.15-.25-.31-.51-.45-.76-.14-.24-.27-.49-.4-.73-.26-.49-.55-.96-.84-1.41-.15-.23-.3-.46-.45-.69l-.22-.34-.11-.17-.05-.09v-.02s-.02-.01-.02-.01l-.08-.12-.36-.53c-.42-.61-.84-1.22-1.28-1.83-.22-.3-.43-.61-.65-.91-.22-.3-.43-.6-.66-.89-.89-1.18-1.83-2.36-2.79-3.55-.48-.59-.96-1.19-1.44-1.8-.24-.3-.48-.61-.71-.92l-.7-.91c-.93-1.22-1.86-2.43-2.8-3.64-.93-1.2-1.88-2.39-2.84-3.55l-.36-.43-.18-.22-.09-.1-.08-.09c-.21-.24-.47-.5-.74-.78-.14-.14-.28-.3-.43-.46-.07-.08-.15-.17-.22-.25l-.18-.22c-.23-.27-.47-.55-.73-.84-.5-.58-1.04-1.19-1.52-1.91-.24-.36-.48-.74-.68-1.17-.05-.1-.1-.22-.14-.33-.05-.11-.09-.22-.13-.34l-.06-.17v-.02c.98-.7-2.23,1.55,2.21-1.57h0s.03.03.03.03l.06.05.25.19c1.29,1.05,2.34,2.23,3.32,3.38.34.4.67.8,1,1.2l.49.59c.16.19.33.39.49.58.66.77,1.34,1.52,2.04,2.27,1.39,1.5,2.84,2.98,4.29,4.48l1.09,1.13.14.15.15.16c.1.11.19.21.28.32.18.21.36.42.53.63.34.42.65.82.97,1.19.16.19.31.37.47.53l.54.58c1.44,1.57,2.79,3.2,4.09,4.84.65.82,1.29,1.65,1.93,2.47.64.82,1.27,1.64,1.9,2.46,1.27,1.64,2.53,3.29,3.76,4.97.61.84,1.22,1.69,1.8,2.54l.44.64c.14.2.29.42.44.65.15.23.3.46.45.72.15.25.29.52.42.83.06.15.13.32.18.5.01.04.03.09.04.14l.03.15s.02.11.03.16v.08s.02.04.02.04v.02c.42-.26-3.57,2.36-1.89,1.25-.1-.06-.21-.12-.3-.19-.08-.06-.17-.13-.24-.19-.07-.06-.14-.13-.2-.19-.06-.06-.12-.12-.18-.19-.44-.5-.74-.98-1.02-1.45-.14-.24-.27-.47-.39-.7-.12-.23-.24-.45-.35-.64-.22-.39-.49-.78-.77-1.2-.22-.32-.44-.65-.67-1l-.16-.27-.15-.25c-.1-.16-.2-.33-.3-.49-.4-.65-.81-1.27-1.26-1.85l-.17-.21-.18-.21c-.13-.15-.26-.3-.39-.45-.26-.3-.52-.61-.78-.91-.52-.61-1.04-1.22-1.56-1.83-2.09-2.44-4.19-4.89-6.26-7.31-.89-1.04-1.74-2.06-2.61-3.06-.87-1-1.74-1.97-2.63-2.93-.89-.95-1.8-1.88-2.75-2.79-.23-.23-.47-.45-.71-.67-.24-.22-.48-.44-.73-.66-.12-.11-.25-.22-.37-.33l-.18-.16c-.07-.07-.15-.13-.22-.2-.28-.26-.53-.53-.77-.79-.3-.33-.58-.67-.85-.96.36.34.72.75,1.15,1.2.15.15.3.31.47.46.08.08.17.15.25.23l.22.19.44.39.44.39c.58.53,1.16,1.06,1.72,1.62.56.55,1.12,1.11,1.67,1.69.55.57,1.09,1.15,1.63,1.74,1.07,1.18,2.11,2.39,3.14,3.61,1.04,1.22,2.08,2.44,3.12,3.66,2.08,2.44,4.16,4.88,6.24,7.33l.39.46.09.11.09.11.17.22c.23.29.45.6.66.91.21.32.42.64.63.98l.31.51.16.26c.06.09.12.18.17.27.47.72.95,1.35,1.33,1.98.1.16.18.31.28.48l.3.53c.21.36.43.73.68,1.1.06.09.13.19.2.28.07.09.14.19.22.28l.12.14s.09.1.13.14c.08.09.19.19.29.29.12.1.23.19.39.28l.11.07c-1.45.97,1.99-1.31,1.63-1.08v-.02s0-.03,0-.03v-.06c-.02-.08-.03-.17-.05-.24-.07-.3-.16-.55-.26-.78-.1-.23-.21-.44-.32-.63-.11-.2-.23-.39-.35-.57-.12-.18-.24-.36-.35-.53l-.34-.49c-.92-1.34-1.86-2.64-2.83-3.93-.96-1.29-1.94-2.55-2.92-3.81-.98-1.25-1.96-2.5-2.93-3.75-1.5-1.9-3.03-3.8-4.67-5.63-.21-.23-.41-.45-.62-.68l-.61-.65c-.37-.41-.74-.87-1.12-1.34-.19-.24-.39-.48-.6-.72-.1-.12-.21-.24-.32-.36-.05-.06-.11-.12-.17-.18l-.16-.17-1.26-1.31c-1.68-1.74-3.36-3.45-4.97-5.21-.4-.44-.8-.88-1.19-1.33-.39-.45-.77-.9-1.15-1.36-.77-.92-1.56-1.87-2.43-2.78-.44-.45-.89-.9-1.38-1.32-.12-.1-.25-.21-.37-.31l-.19-.15-.1-.08-.02-.02h-.01c-3.37,2.37-.93.66-1.68,1.19l.02.07.09.26c.03.09.07.17.1.25.07.17.15.32.23.48.33.62.72,1.17,1.12,1.67.4.5.81.97,1.2,1.41.2.22.38.44.56.66.22.27.45.51.66.73.22.23.42.43.61.64.09.1.18.2.27.3l.29.34c.77.91,1.52,1.84,2.26,2.78,1.48,1.88,2.93,3.8,4.41,5.71,1.49,1.93,3.05,3.77,4.5,5.66.3.39.59.77.88,1.16.29.39.58.79.86,1.19.57.8,1.13,1.6,1.69,2.41l.34.5c.18.26.35.53.52.79.34.53.68,1.07,1.01,1.6.15.23.3.46.45.68.16.23.31.47.46.7.33.53.72.99,1.03,1.55.34.63.85,1.19,1.34,1.7.03.03.1.12.12.07,0-.02-.02-.1-.04-.12-.13-.14-.15-.3-.26-.44-.17-.21-.24-.44-.35-.67.16.1.35.32.48.26.01,0,.11.12.17.23.19.35.37.75.73.9.18.07.15.32.29.47.13.14.24.7.35.28,0-.01.03,0,.05,0,.09.03.22.22.28.12-.2-.16-.16-.36-.28-.53-.63-.88-1.2-1.79-1.76-2.7-.44-.72-.9-1.44-1.33-2.17-.03-.06-.06-.12-.1-.18.06,0,.1.1.15.15.15.15.19.35.32.52.37.46.72.94,1.12,1.39.48.54.82,1.21,1.15,1.85.08.14.16.27.26.4.04.05.08.11.12.16.02-.04,0-.1-.05-.18-.09-.14-.08-.18.04-.06.38.4.76.89,1,1.35.25.49.57.91.85,1.37.16.26.27.15.42.25.13.08-.03-.15-.02-.22,0-.06-.07-.2.02-.17.07.02.14.11.18.22.05.12.08.27.21.29.12.02.03-.15,0-.26-.03-.11-.05-.17.03-.16.1.02.05-.12,0-.22-.53-1.05-1.12-2.06-1.76-3.05-.15-.24-.3-.47-.44-.71-.06-.1-.13-.25-.2-.2-.05.03.03.2.09.29.24.3.41.64.63.96.14.21.29.43.42.65.05.09.17.24.1.28-.08.04-.15-.07-.24-.22-.48-.79-.97-1.57-1.45-2.35-.29-.47-.53-.96-.85-1.41-.05-.07-.14-.2-.07-.22.05-.01.1.11.14.18.31.5.63.99.95,1.49.05.08.1.23.17.21.06-.02-.05-.17-.09-.23-.39-.57-.68-1.18-1.09-1.73-.05-.06-.13-.16-.09-.19.04-.02.1.08.15.15.42.62.85,1.23,1.27,1.86.1.16.24.35.27.53.01.09.09.24.18.28.36.15.54.56.76.91.15.23.27.52.5.48.08-.01.3.26.45.36.09.06.25.22.28.12.02-.09-.07-.24-.16-.39-.17-.28-.33-.57-.49-.85-.03-.04-.07-.12-.07-.13.02-.03.07,0,.12.06.12.12.23.24.33.4.13.2.25.44.44.56-1.21-1.81-2.43-3.53-3.56-5.26-.28-.43-.55-.85-.85-1.32-.29-.46-.59-.91-.89-1.37-.3-.45-.6-.9-.9-1.35l-.23-.34-.07-.1-.72-1.04c-.48-.69-.97-1.38-1.46-2.06l-.37-.51-.38-.52c-.26-.35-.52-.69-.78-1.03-.52-.68-1.05-1.34-1.57-1.99l-1.55-1.93-.76-.95-.75-.96h0c-1.27-1.65-2.54-3.33-3.86-5-.66-.84-1.32-1.67-2.01-2.5l-.52-.62-.54-.64c-.45-.51-.85-.9-1.14-1.21-.07-.08-.14-.15-.2-.22l-.23-.28c-.19-.23-.37-.43-.55-.64-.35-.4-.68-.77-.96-1.12-.28-.35-.52-.68-.7-.98-.04-.07-.08-.15-.12-.22l-.05-.1-.03-.05-.02-.05-.04-.09s-.02-.06-.03-.09l-.02-.04v-.02s-.01,0-.01,0c-1.77,1.25,3.97-2.8-3.98,2.8h.02s.12.11.12.11c.66.52,1.32,1.16,1.97,1.87.65.71,1.3,1.49,1.97,2.3,2.78,3.35,5.86,6.34,8.67,9.31.28.3.58.66.9,1.05.32.4.66.83,1.06,1.29.05.06.1.11.15.17.05.06.1.11.16.17l.29.31c.17.18.34.37.51.55.17.19.34.37.51.56.17.19.34.38.5.57,1.33,1.53,2.61,3.13,3.89,4.77h0s3.8,4.89,3.8,4.89c1.25,1.63,2.49,3.25,3.66,4.9.29.41.59.82.87,1.24l.44.64c.14.21.27.39.38.57.11.17.21.34.28.48.07.13.12.25.12.26,0,0,0,0,0,0h.04s.06-.03.09-.03c.05-.02.1-.03.15-.04.1-.03.2-.05.31-.07h.08s.06-.03.06-.03c.04,0,.08-.02.13-.02.04,0,.09-.01.13-.02h.07s.03,0,.03,0c4.09-2.51,1.14-.71,2.06-1.28.04-.08.08-.16.13-.23.02-.04.05-.07.07-.1l.04-.05s.03-.04.04-.07c.06-.09.13-.18.19-.26.03-.04.07-.08.1-.12l.05-.06s.04-.05.06-.07c.06-.07.04-.05.04-.05h0s0,0,0,0c-.01-.02-.03-.03-.04-.04-.04-.04-.08-.09-.12-.15-.09-.12-.2-.28-.31-.45-.11-.17-.22-.36-.34-.56l-.37-.66-.11-.2c-.04-.07-.08-.14-.12-.21-.08-.14-.16-.27-.25-.39-.33-.51-.65-.95-.92-1.35-.14-.2-.26-.39-.38-.56l-.4-.64c-.28-.45-.58-.92-.91-1.4-.33-.48-.69-.97-1.09-1.44l-2.02-2.37-4.03-4.72-4.03-4.73c-1.36-1.61-2.76-3.19-4.22-4.74h0c-1.33-1.41-2.71-2.78-4.16-4.1-.18-.16-.36-.33-.55-.49l-.52-.46c-.22-.2-.48-.48-.79-.83-.32-.35-.68-.77-1.16-1.2-.22-.21-.57-.47-.66-.55-.07-.06-.15-.12-.22-.18-.07-.06-.15-.13-.22-.19-.6-.53-1.22-1.18-1.91-1.87-.35-.35-.71-.71-1.11-1.07l-.3-.27-.32-.27-.02-.02h0s0-.01,0-.01c.86-.22-7.49,1.78-3.98.99-.03.08-.06.16-.09.24-.01.04-.02.08-.03.12-.01.04-.02.07-.03.11-.01.07-.03.14-.04.21,0,.04,0,.07-.01.11,0,.04,0,.06,0,.09,0,.06,0,.11,0,.17v.08s0,.08,0,.08c0,.09.01.18.03.26v.06s.02.05.02.05l.02.1v.05s.02.04.02.04l.02.08c.06.22.12.34.18.46l.04.08.04.07s.05.09.07.12c.18.3.31.45.43.61.24.29.44.5.64.7.2.2.39.38.58.56.19.18.38.34.56.51l.26.23.11.1s0,0,0,0h0s0,0,0,0l.02.03c.28.28.58.62.94,1,.36.37.76.78,1.26,1.19.13.1.26.21.4.31.14.1.28.2.41.28.13.08.25.16.35.22.1.06.18.11.25.16.13.09.19.13.24.18l.28.26c.1.09.19.18.29.26.78.7,1.57,1.35,2.36,1.97h0c1.41,1.1,2.82,2.12,4.17,3.13l.87.66,1.01.8c.35.25.69.42,1.02.52.33.1.63.15.96.16.16,0,.34-.01.52-.04.18-.03.36-.08.52-.13.16-.06.31-.13.45-.2.14-.07.27-.16.4-.26.26-.2.53-.47.76-.8.06-.09.11-.17.17-.26.05-.09.11-.19.16-.28l.31-.56c.21-.37.41-.75.61-1.14l.12-.24.08-.18.09-.19.08-.19c.11-.25.2-.5.29-.74.09-.25.17-.5.24-.75.15-.52.28-1.05.35-1.71.03-.33.05-.69.01-1.14l-.02-.18v-.09s-.03-.1-.03-.1c-.01-.07-.02-.13-.04-.19-.02-.07-.03-.14-.05-.21-.02-.07-.04-.15-.07-.23-.03-.08-.05-.15-.09-.24-.04-.08-.08-.17-.12-.25-.05-.09-.1-.18-.16-.27l-.04-.06-.05-.07s-.07-.09-.1-.14-.07-.09-.11-.13c-7.44-.27-2.07-.07-3.73-.13h-.01s-.02.03-.02.03c-.05.06-.11.11-.16.17-.1.11-.2.22-.29.33-.18.21-.35.42-.5.62-.3.39-.55.74-.77,1.03-.1.13-.23.29-.36.45l-.4.48c-.27.33-.55.67-.84,1.02-.29.36-.58.73-.87,1.13-.14.2-.29.41-.43.62l-.35.54c-.36.55-.85,1.15-1.41,1.82-.28.33-.57.7-.86,1.06l-.42.54-.41.54c-.53.73-1.04,1.45-1.54,2.18-.99,1.44-1.93,2.86-2.9,4.19l-.36.5c-.12.16-.25.32-.37.49l-.79,1.04-.79,1.06c-.26.36-.52.71-.78,1.07h0c-2.56,3.59-4.89,7.34-6.96,11.25-.26.49-.51.98-.76,1.47l-.05.09v.02c8.09,5.98,2.24,1.65,4.05,2.98h.01s.04-.05.04-.05l.17-.17c.11-.11.22-.22.33-.34l.16-.17.15-.17c.1-.11.2-.23.3-.34.79-.9,1.46-1.8,2.1-2.62.32-.41.63-.8.95-1.17l.12-.14.12-.13.26-.29c.19-.21.38-.43.56-.64.74-.86,1.44-1.74,2.11-2.62,1.35-1.76,2.59-3.52,3.86-5.2.16-.21.32-.42.47-.63l.49-.64c.34-.44.67-.89.99-1.33.64-.88,1.26-1.74,1.89-2.55.16-.2.31-.41.47-.61l.24-.3.25-.31c.38-.46.73-.93,1.06-1.39.67-.92,1.27-1.82,1.87-2.66.15-.21.3-.42.45-.62l.22-.3.24-.31c.32-.42.64-.84.96-1.26.65-.84,1.31-1.67,1.97-2.5l1.68-2.1h0s.58-.72.58-.72c.18-.22.37-.44.57-.68.4-.47.84-.96,1.29-1.52.22-.28.45-.57.67-.89l.29-.42.25-.36c.34-.48.7-.96,1.08-1.47l.58-.77.13-.17.11-.14c.08-.1.16-.2.26-.31l.63-.73.18-.21s0,0,.03-.04l.08-.09c.11-.13.23-.26.34-.4.23-.27.45-.55.69-.88.06-.08.12-.17.18-.26l.1-.15c.03-.05.07-.1.1-.16l.05-.09.06-.1c.04-.06.08-.15.12-.24.02-.05.05-.1.07-.16.01-.02.03-.06.04-.09l.04-.1.02-.05.02-.07s.03-.1.04-.15l.02-.07s.02-.07.02-.11c.01-.08.03-.15.04-.23,0-.03,0-.08.01-.15,0-.06,0-.12,0-.18,0-.06,0-.12,0-.18,1.03.14-9.01-2.03-4.77-1.1l-.03.05-.05.09-.11.19c-.07.12-.15.25-.22.37-.15.24-.31.48-.46.72-.32.47-.65.93-1,1.37-.09.11-.18.22-.27.33l-.14.16-.15.18c-.18.21-.33.42-.45.6-.12.18-.22.33-.3.45-.08.12-.14.21-.18.27-.02.03-.04.05-.06.08-.02.03-.04.05-.08.09-.06.06-.13.14-.22.23-.09.09-.19.18-.31.29-.23.22-.51.48-.82.82l-.2.23-.15.17-.3.35c-1.61,1.84-3.35,3.63-5.11,5.49-.88.93-1.76,1.87-2.63,2.85-.22.25-.43.49-.65.74l-.62.72c-.37.43-.77.86-1.19,1.3-.83.87-1.74,1.73-2.66,2.67-.95.96-1.84,1.95-2.69,2.95-1.7,2-3.25,4.03-4.82,5.97l-4.74,5.95h0s-1.12,1.41-1.12,1.41l-.27.34-.12.15-.13.15-.58.68c-.21.24-.42.5-.65.79-.06.07-.11.15-.17.22l-.17.23c-.06.08-.11.16-.17.25l-.15.23c-.26.4-.57.82-.91,1.27-.35.45-.73.92-1.13,1.44-.39.52-.8,1.09-1.18,1.73-.09.16-.19.32-.28.49l-.13.25c-.04.09-.08.18-.13.26l-.06.13-.03.07-.02.03v.02c-3.2-2.91,4.33,3.99,3.57,3.27.07-.04.14-.08.21-.13l.1-.07.09-.07c.06-.04.13-.09.19-.14l.17-.14.08-.07.08-.07.15-.14c.37-.36.64-.7.87-1,.23-.31.41-.58.56-.8l.11-.15.11-.14.26-.35.53-.7,1.08-1.41,2.21-2.84c.74-.96,1.48-1.92,2.21-2.91.18-.25.37-.49.55-.74.18-.25.36-.5.54-.75l.27-.38.27-.38.51-.74c1.33-1.92,2.75-3.81,4.19-5.72l2.18-2.88c.73-.97,1.44-1.95,2.15-2.91.71-.97,1.42-1.93,2.13-2.87l.53-.71.26-.34.26-.34c.35-.45.72-.91,1.09-1.36.74-.91,1.52-1.83,2.29-2.79.39-.48.77-.96,1.16-1.46.38-.49.75-.99,1.11-1.47h0c.65-.88,1.28-1.72,1.92-2.51.16-.2.32-.39.48-.58l.27-.32.28-.34c.37-.46.71-.9,1.04-1.32l.24-.31.12-.15.06-.07s.01-.02.02-.02h.01c.06-.09.2-.23.38-.4.18-.17.4-.38.64-.62.24-.25.51-.54.79-.93.07-.11.14-.2.21-.32l.1-.18c.03-.06.07-.12.1-.19.03-.07.07-.14.1-.21l.05-.11s.03-.08.04-.12c.03-.08.06-.16.08-.24l.02-.06v-.03s.01-.02.01-.02c-7.35-5.85-2.05-1.62-3.69-2.92l-.12.07c-.31.18-.55.37-.74.55-.19.17-.33.32-.46.46l-.29.32c-.07.08-.13.14-.15.16,0,0-.01.01-.01,0h0s.07.09.07.09l.04.05.02.03c.14.17-.17-.2-.14-.16l-.02.02-.15.13-.3.25c-.81.67-1.67,1.34-2.54,2.07-.44.36-.87.73-1.31,1.12l-1.22,1.09c-.81.73-1.63,1.47-2.45,2.23-.41.38-.82.77-1.22,1.17l-.29.29c-.06.06-.13.13-.21.19-.15.13-.33.28-.53.44h0s-.41.33-.41.33c-.15.12-.3.25-.46.38-.16.14-.33.29-.49.45l-.37.35c-.24.23-.47.45-.7.65-.11.1-.23.2-.34.3-.11.09-.22.19-.34.27-.11.09-.22.17-.33.25-.11.08-.22.16-.33.22-.11.07-.21.13-.32.2-.1.06-.21.12-.31.16-.05.03-.1.05-.15.07-.05.02-.1.05-.15.06l-.15.06h-.02s0,.01,0,.01h-.02s-.06.03-.06.03l-.1.03c-.06.02-.11.04-.14.04-.03.01-.05.01-.05.01l.05.26c.01.08.03.16.03.23.01.06.02.13.02.19v.05s0,.04,0,.04v.08s.01.15.01.15c0,.04,0,.1,0,.14,0,.04,0,.08,0,.11,0,.02,0,.04,0,.05,0,.02,0,.03,0,.05v.02s0,.01,0,.01c.09-.62-.21,1.41.21-1.39l.02-.05.02-.05v-.02s-.01,0-.02-.01c-.08-.03-.17-.06-.24-.08-.08-.02-.15-.04-.22-.05-.07-.01-.14-.03-.22-.03l-.23-.02s-.08,0-.12,0c-.04.01-.08,0-.12.01l-.24.02c-.08,0-.15.02-.22.04-.14.03-.29.07-.45.14-.04.02-.08.03-.12.05l-.06.03s.02,0,.03,0h.04s.09.02.09.02l.09.02h.04c-.04-.45.53,4.04.28,2.14,0,0,0-.02,0-.02,0,0,0-.05,0-.07v-.02c.02,1.37-.02-3.09.04,3.07h0s.03,0,.03,0h.07s.13,0,.13,0h.27c.71-.05,1.42-.09,2.14-.14.71-.05,1.43-.11,2.14-.17l.27-.03.28-.03c.2-.02.39-.04.58-.07.38-.05.73-.1,1.08-.15.69-.1,1.33-.19,1.91-.24.29-.02.56-.04.82-.03h.31c.13,0,.25,0,.37-.01.25-.01.47-.04.69-.06.22-.03.41-.06.59-.08l.49-.07c.15-.02.28-.04.4-.05.06,0,.12-.01.17-.01h.04s.02,0,.02,0h.03s.12,0,.12,0c.66-.03,1.33-.04,2.01-.05,2.7-.04,5.47.07,8.31.08h1.32c1.05,0,2.16.11,3.33.24.59.06,1.18.13,1.81.2l.42.04.17.02s.1.01.14.02c.18.03.26.06.31.08.02,0,.04.02.06.03,0,0,0,0,.01.01h0c.49-1.3-1.1,2.92,1.1-2.91,0-.02-.01-.03-.02-.05l-.02-.06v-.04s-.01-.02-.02-.04c0-.04-.02-.07-.02-.11,0-.02,0-.04-.01-.06,0-.02,0-.05-.01-.07,0-.08-.03-.24-.03-.37v-.14s-.01-.1-.01-.14c0-.05,0-.1,0-.14v-.21s0-.22,0-.22c0,0,0,0,0,0h-.01s0,0,0,0h-.01s-.03,0-.03,0l-.21-.02h-.16c-.06-.01-.14-.02-.21-.02-.07,0-.15,0-.22,0-.02,0-.04,0-.05,0h-.04s-.07,0-.07,0c-.09,0-.18,0-.27.01-.18.01-.35.03-.52.04-.34.03-.66.07-.96.1-.6.07-1.11.13-1.56.14-.06,0-.11,0-.16,0h-.21c-.17,0-.34,0-.51,0-.34,0-.67.02-1,.04-1.3.08-2.5.22-3.6.29l-1.79.11-1.81.12c-2.42.17-4.83.38-7.25.63l-3.57.38-3.57.36c-2.39.24-4.8.48-7.23.8l-.45.06-.11.02h-.09s-.08.02-.12.02c-.18.02-.39.02-.66.02-.27,0-.58,0-.94,0-.36,0-.77.02-1.21.08l-.44.06c-.12.02-.25.03-.37.04-.25.02-.51.04-.77.06-.53.03-1.09.03-1.69.04h-.45s-.47,0-.47,0c-.33,0-.65.01-.97.03-.64.03-1.26.07-1.86.11-1.21.08-2.36.17-3.46.19-.27,0-.54,0-.81,0l-.86-.02c-.13,0-.25,0-.34-.02-.1,0-.18-.02-.24-.03-.06,0-.1-.02-.1-.02,0,0,0,0-.01.04-.01.03-.01.05-.02.07-.01.05-.03.09-.04.14-.02.05-.03.09-.05.14l-.04.12s-.03.07-.05.11l-.03.06-.02.05s-.03.06-.04.09l-.02.04c.2-.36-.49.87.45-.8-.01-.01-.05-.03-.04-.02.01-.02-.04.06-.07.1l-.1.14s-.06.09-.09.13c-.03.04-.06.08-.08.12-.06.08-.12.16-.18.24-.03.04-.07.08-.09.11-.03.03-.05.07-.08.1-.05.06-.11.13-.17.19-.03.03-.06.06-.08.08-.02.03-.05.05-.07.07-.02.02-.05.05-.08.07-.02.02-.06.05-.08.06-.04.04-.08.07-.13.1-.05.03-.07.05-.11.07-.02,0-.04.02-.06.03-.02,0-.02.01-.04.02-.01,0-.03,0-.04.01-.02,0-.01,0-.02,0,0,0-.01,0-.02,0,0,0,0,0,0,0,0,0,0,0,0,0,0,0,.01,0,.02,0,0,0,.01,0,.02,0,.01,0,.03.01.04.02.01,0,.02.01.03.02.02.01.03.02.05.04.01.01.03.03.04.04.02.02.04.04.05.06.06.07.15.18.21.29.04.06.08.13.12.2.02.03.04.07.06.11.02.04.04.08.06.12.07.15.17.35.24.53.02.04.04.1.06.15l.06.16.06.16c.03.08.02.07.02.07,0,0,0,0,.02,0h.01s.02-.01.02-.01c.06-.02.16-.04.27-.06l.42-.08.21-.04c.06-.01.13-.03.19-.04.13-.02.26-.05.39-.07,1.06-.18,2.24-.29,3.53-.48.16-.02.32-.05.49-.08l.4-.06c.26-.04.52-.07.79-.1.54-.06,1.12-.11,1.71-.16.6-.05,1.23-.1,1.88-.18.16-.02.33-.04.49-.06l.42-.06c.27-.03.54-.06.82-.09,1.12-.11,2.34-.17,3.64-.32.32-.04.66-.08.99-.14l.88-.14c.58-.09,1.16-.17,1.75-.26,1.17-.16,2.34-.32,3.52-.46,2.36-.29,4.73-.54,7.12-.81l3.58-.4c1.18-.13,2.37-.26,3.55-.38,2.36-.23,4.7-.42,7.04-.53,1.17-.05,2.33-.08,3.49-.09h3.59s0,0,0,0h2.51s1.79,0,1.79,0h.17s.04,0,.06,0c.05,0,.1,0,.18.02.16.03.42.09.79.17l.14.03.15.03.15.03h.02c-.47,4.54.66-6.17.54-5.07h-.03s-.05,0-.05,0l-.44-.03c-.3-.02-.63-.03-.98-.04-.18,0-.36,0-.55,0-.19,0-.39.01-.6.03-.11.01-.2.02-.36.04-.07,0-.15.02-.22.04-.07.01-.13.03-.2.04-.25.06-.44.11-.58.15-.13.04-.21.06-.24.06,0,0,0,0,0,0,0,0,0,0,0,0,0,0,0,0,0,0,0,0,0,0,0,0,0,0-.02,0-.03,0-.11,0-.32,0-.63-.02-.15,0-.33-.02-.53-.02-.1,0-.21,0-.32,0-.13,0-.2,0-.28.01-.33.01-.66.04-.99.06-1.29.11-2.51.3-3.67.47-.58.09-1.14.17-1.69.24-.27.03-.54.07-.81.09l-.86.08c-1.16.11-2.32.21-3.49.3-2.34.19-4.7.38-7.07.6-.29.03-.6.06-.91.09-.31.03-.61.07-.92.11-.61.08-1.21.16-1.81.25-1.2.18-2.38.38-3.55.58l-.87.15c-.27.05-.54.09-.82.13-.55.08-1.11.15-1.67.22-1.13.13-2.31.25-3.51.39-.6.07-1.21.15-1.83.24l-.86.13c-.28.04-.56.08-.84.11-1.12.14-2.26.26-3.42.37-2.32.22-4.7.4-7.14.73h0l-.5.07-.5.08-.48.07c-.12.02-.25.04-.38.05-.26.03-.55.06-.87.08l-.24.02h-.13s-.06.02-.06.02h-.05s-.06.01-.06.01c-.08,0-.16.02-.24.03l-.12.02-.1.02-.17.03-.13.03-.09.02h-.05s0,.01,0,.01h0s0,0,0,0c0,.03,0,.03,0,.05l.02.09c.02.12.04.25.05.37v.09s.01.05.01.05v.03s.01.08.02.12c0,.08.01.16.01.24,0,.02,0,.04,0,.05v.04s0,.05,0,.08c0,.03,0,.06,0,.08v.04s0,.02,0,.03c0,.04,0,.07,0,.11v.06s-.01.02-.01.04c0,.02,0,.05-.02.07,0,0,0,.01,0,.01h0s0,.03,0,.03v.02s-.01,0-.01,0c0,0,0,0,0,0,0,0,0,0,0,0h0s0,0,0,0c0,0,0-.01.01-.02h0c.58,2.6.17.72.3,1.31h.01s.03.03.05.05c.03.03.06.05.09.08.01.01.03.03.04.04l.02.02s.01.01.02.02c.07.07.14.15.2.23.05.07.14.18.21.28.04.05.07.1.1.16.03.05.06.1.1.17l.06.1.03.05v.02s.01,0,.01,0c0,0,0,0,0,0,0,0,0,0,0,0h.01c.07-.04.25-.11.47-.17.22-.06.48-.12.77-.19l.48-.11c.17-.04.34-.08.51-.12.34-.08.67-.16,1-.25.66-.17,1.3-.36,1.93-.56.63-.19,1.26-.39,1.87-.59l.91-.29.44-.14.19-.06.19-.05c.51-.14,1.07-.26,1.66-.37l.93-.17c.32-.06.65-.12.98-.18.33-.06.7-.14.98-.2.3-.06.6-.12.89-.18.59-.11,1.19-.21,1.78-.29.59-.08,1.17-.15,1.76-.2l.44-.03.43-.02c.14,0,.29-.01.43-.02h.22s.11,0,.11,0h.22c.59-.04,1.05-.15,1.36-.21.15-.03.27-.06.35-.07.07-.01.17-.02.26-.03.2-.02.44-.02.71-.02h.21s.38.02.38.02c.32.01.64.02.96.02.12,0,.24.01.37.02.12,0,.25.02.37.02.24.01.49.02.72,0,.46-.03.85-.12,1.19-.25.34-.13.63-.3.9-.52.14-.11.27-.24.4-.39.13-.15.24-.32.34-.49h0c.08-.15.15-.3.21-.46.06-.15.1-.31.14-.46.07-.31.09-.64.08-.99-.02-.35-.08-.73-.21-1.14-.12-.4-.29-.82-.47-1.23-.04-.1-.08-.21-.12-.31,0-.02-.02-.05-.03-.07l-.02-.06-.04-.12s0-.03,0-.03c0,0,0,0,0,0,.02,0-.04,0-.07.01l-.11.02c-.27.04-.49.04-.64.04h-.1s-.07-.01-.09-.02c-.02,0-.04,0-.06,0h-.04s-.03-.02-.04-.02c0,0,0,0,0,0h0s0,0,0,0c1.43.2-1.94-.28-1.6-.22,0,.01-.02.02-.03.03l-.04.03s-.03.02-.04.03c-.04.03-.07.04-.12.08-.02.01-.05.03-.07.04-.03.02-.06.03-.09.04-.06.02-.13.06-.2.08-.3.1-.7.19-1.2.26h-.1s-.04.02-.04.02h0s0,0,0,0c0,0,0,0,0,.01v.05c0,.09,0,.24,0,.42l-.02.3c0,.11-.02.23-.03.39v.13c0,.05,0,.12,0,.14v.22c0,.14.01.28.02.42.01.27.04.53.06.78.03.24.05.48.08.69.03.21.05.42.07.61.02.19.04.37.04.53,0,.08,0,.16,0,.23v.26c0,1.01.07,1.95.14,2.83.07.88.14,1.69.15,2.44v.62s0,.64,0,.64v1.29s-.02,1.31-.02,1.31v.69c0,.26,0,.51.02.76.02.5.06.99.11,1.45l.08.68.04.33c0,.09.02.17.03.26.06.69.06,1.48.04,2.33,0,.43-.02.87-.03,1.34,0,.47,0,.96.02,1.42.03.93.1,1.83.15,2.69.03.43.05.85.08,1.27.02.41.03.82.04,1.22v1.3c.02.45.03.9.04,1.34.05,1.78.13,3.53.19,5.24h0c.02.58.04,1.16.05,1.74v.86s.01.43.01.43v.05s0,.03,0,.03h0c10.21.02,2.83,0,5.11,0V5.12s0-.1,0-.15c0-.23.03-.52.05-.85h0c.02-.28.03-.59.03-.94,0-.35-.02-.74-.11-1.21-.03-.13-.05-.25-.09-.38-.02-.07-.04-.14-.06-.21l-.03-.1h0s0-.02,0-.02h0s0,0,0,0c-7.97-2.3-2.21-.64-3.99-1.15l-.06.05s-.08.07-.13.11-.08.08-.12.12c-.04.04-.07.07-.1.11-.06.07-.12.15-.18.22-.05.07-.09.13-.13.2-.02.03-.04.07-.06.1l-.05.09c-.03.06-.06.12-.09.18-.02.05-.04.1-.06.15-.04.11-.07.19-.1.28-.1.35-.14.6-.17.83-.03.23-.04.42-.04.61,0,.17,0,.32,0,.46,0,.15,0,.29.02.42.01.27.03.52.05.74v.15s.02.09.02.09c0,0,0,0,0,0v.07s0,.15,0,.15c0,.2-.01.4-.02.6-.04.82-.13,1.71-.2,2.67-.04.48-.06.98-.08,1.5l-.03,1.36c-.02.9-.05,1.8-.09,2.7-.07,1.8-.16,3.61-.27,5.42l-.18,2.75c-.05.98-.06,1.94-.06,2.89,0,.94.02,1.87.04,2.77l.02,1.34c0,.44,0,.88,0,1.33,0,.9-.02,1.82-.02,2.78,0,.48.01.96.03,1.45,0,.24.02.49.03.74l.04.7c.11,1.68.07,3.5.17,5.45.01.25.03.49.05.74,0,.12.02.25.03.37l.03.37c.04.42.08.84.1,1.27.05.86.08,1.74.1,2.64h0s.01.63.01.63v.08s0,.04,0,.04c9.02-2.23,2.5-.62,4.51-1.12,0,0,0,0,.01,0l.04-.02s.03-.01.04-.02h.02s.01,0,.03-.02c.03-.01.06-.02.09-.03h.04s.04-.02.04-.02c0,0,0,0,0,0,0,0,0,0,0-.01,0-.01,0-.02,0-.03,0,0,0-.01,0-.02v-.03s0-.03,0-.03v-.04s0-.04,0-.04v-.02s0-.03,0-.03v-.1s0-.12,0-.12l.03-.64c0-.26.01-.57,0-.91l-.03-.27v-.07s-.02-.07-.02-.07c0-.05-.01-.1-.02-.15-.03-.19-.07-.37-.11-.52-.04-.15-.08-.28-.1-.36-.02-.09-.04-.14-.04-.17,0-.03,0-.04,0-.05,0,0,0,0,0-.01v-.12c-.01-.16-.01-.34-.01-.53,0-.37.01-.78.02-1.23,0-.22,0-.46,0-.7v-.65c0-.43-.01-.87-.02-1.3-.06-3.46-.24-6.85-.26-10.17,0-.83,0-1.66,0-2.51,0-.85.02-1.72,0-2.6-.01-.88-.04-1.78-.1-2.7-.03-.46-.07-.92-.13-1.38l-.04-.32c0-.09-.02-.17-.03-.26l-.02-.26-.02-.27c-.02-.36-.03-.74-.03-1.14v-.35s0-.19,0-.19v-.39s.05-1.65.05-1.65v-.43s0-.42,0-.42v-.8c.02-2.15.09-4.37-.01-6.68-.08.01-.14-.02-.21-.09-.02-.02-.03-.03-.05-.05h-.01s0-.02,0-.02h0s0,0,0,0c.93-.27-8.12,2.32-4.29,1.23h0s0,0,0,0h0s0,0,0,0c0,0,.02,0,.02,0,.03,0,.06,0,.1,0,.03,0,.06.01.09,0,.3-.12.56-.14.85-.04.09.03.16-.05.17-.15,0-.06.02-.13.04-.15.03-.02.08-.01.14.08.09.13.16.24.25.29.09.05.2.03.32-.06.07-.05.09-.03.07.12-.03.17,0,.16.06.09.09-.1.22-.17.23-.33.01-.14.01-.24.02-.3,0-.06.03-.08.05-.07.05.02.13.15.19.32.01.03.03.06.04.08,0-.14.03-.22.06-.26.03-.04.08-.05.12-.05.05,0,.09,0,.12-.06.03-.05.05-.14.02-.31-.04-.22-.08-.4-.06-.49,0-.05.03-.07.07-.06.04,0,.1.05.19.14.04.04.1.03.09,0-.07-.28-.08-.39-.04-.43.04-.04.14,0,.24.05.07.04.13.04.16,0,.03-.05.02-.16-.03-.31,0-.02-.01-.04-.02-.05h0s0-.01,0-.01h0s0,0,0,0c3.01-.86-4.1,1.17-3.37.96h0s0,0,0,0c0,0,0,0,0,.01,0,.02-.01.03-.02.05-.01.03-.03.04-.05.05-.03.02-.07,0-.11,0-.08-.03-.15-.07-.2.06-.02-.05-.05-.08-.06-.11,0-.01-.02-.03-.03-.04h0s0,0,0,0h0c-.93.27,8.07-2.31,4.26-1.22h0s0,0,0,0h0s0,0,.01.01c0,0,.01,0,.02.01.05.02.06,0,.06-.06,0,0,0,0,0-.01h0c3.99-1.15-5.43,1.55-4.46,1.27h0s0,0,0,0h0s0,0,0,0h0s0,.01,0,.02c0,.01,0,.02-.01.03,0,.03-.02.06-.02.09-.01.07-.02.14-.03.23,0,.07-.04.13-.07.19.07,2,0,4.07,0,6.22v.81c0,.24,0,.49-.01.74l-.04,1.58v.41s-.01.31-.01.31c0,.88.01,1.8.13,2.78l.06.57c.02.19.04.37.05.56.01.19.03.38.04.57.01.19.02.38.03.57.04.77.05,1.55.05,2.35,0,.8,0,1.62-.02,2.45,0,.83,0,1.68,0,2.52.04,3.35.22,6.64.26,9.87,0,.4.01.81.01,1.21v.3s0,.28,0,.28v.58c-.02.4-.03.84-.03,1.32,0,.12,0,.24,0,.36v.19s.01.1.01.1v.05s0,.06,0,.06c.02.4.1.81.18,1.09.04.14.07.26.09.34.02.08.04.13.04.16,0,.03,0,.04.01.06,0,.01,0,.03,0,.04,0,0,0,.02,0,.03v.03c0,.09,0,.22,0,.4,0,.18-.02.38-.03.64,0,.26-.01.55.02.9.03.35.08.73.21,1.14.03.1.06.2.1.3.04.1.07.2.12.3.05.1.1.2.15.3-1.02.32,9.09-2.42,4.81-1.28v-.04s0-.08,0-.08v-.62s-.01,0-.01,0c-.02-.92-.05-1.87-.11-2.84-.03-.48-.07-.97-.12-1.46l-.03-.31c-.01-.1-.02-.2-.03-.31-.02-.21-.03-.42-.04-.63-.09-1.69-.05-3.53-.17-5.5l-.04-.67c-.01-.21-.02-.42-.03-.63-.02-.42-.02-.85-.03-1.29,0-.87,0-1.78.02-2.7,0-.46,0-.94,0-1.41l-.02-1.4c-.02-.92-.04-1.82-.04-2.71,0-.88,0-1.75.05-2.59l.17-2.72c.11-1.84.21-3.68.28-5.53.04-.92.06-1.85.09-2.77l.03-1.38c0-.39.03-.8.06-1.23.06-.86.16-1.79.21-2.79.01-.25.02-.51.03-.77v-.2s0-.1,0-.1c0-.05,0-.12,0-.17v-.14s-.01-.11-.01-.11v-.2c-.03-.24-.05-.44-.06-.63,0-.09,0-.18-.01-.26,0-.08,0-.16,0-.22,0-.07,0-.13,0-.16,0,0,0-.01,0-.01h0s-.11-.02-.11-.02l-.23-.04c-.07-.01-.14-.03-.21-.04l-.11-.02s-.07-.02-.1-.02c-.06-.01-.13-.03-.19-.05-.06-.02-.13-.04-.18-.05-.11-.03-.23-.08-.31-.11-.05-.02-.09-.04-.14-.06-.04-.02-.08-.03-.11-.05-.02,0-.04-.02-.05-.03-.02-.01-.03-.02-.05-.02-.03-.02-.06-.04-.08-.06-.02-.02-.04-.03-.06-.05l-.03-.03s-.01-.01-.02-.02-.01-.01-.02-.02h0c-.88.13,1.97-.32-1.98.3h0s0,0,0,0h0s-.01,0-.01,0c-.04.01-.07.03-.11.04-.08.03-.15.05-.23.06-.02,0-.03,0-.06.01l-.07.02s-.09.02-.14.04c-.07.02-.04,0-.05.01,0,0,0,0,0,0,0,.02.02.14.02.3,0,.16,0,.36-.02.59h0c-.02.27-.04.56-.06.93,0,.1,0,.18,0,.29v.16s0,.11,0,.11v52.41c2.28,0-5.1.01,5.11,0h0s0-.04,0-.04v-.06s0-.46,0-.46v-.92c-.02-.61-.04-1.22-.06-1.82h0c-.06-1.77-.15-3.5-.19-5.21-.01-.43-.02-.85-.03-1.27v-1.31c-.02-.47-.04-.94-.06-1.4-.02-.46-.05-.9-.08-1.34-.06-.88-.12-1.72-.14-2.53-.02-.41-.02-.8-.02-1.2,0-.4.01-.83.02-1.27.02-.89.04-1.85-.06-2.9,0-.13-.03-.26-.04-.4l-.04-.32-.07-.62c-.04-.4-.07-.79-.09-1.16,0-.19-.01-.37-.01-.55v-.62s.02-1.31.02-1.31v-1.33s0-.67,0-.67v-.68c-.02-.99-.11-1.92-.18-2.78-.07-.86-.13-1.65-.13-2.39v-.39c0-.14,0-.28-.02-.42-.01-.28-.04-.53-.06-.78l-.15-1.3c-.02-.19-.03-.36-.04-.52,0-.08,0-.16,0-.23v-.11s0-.01,0-.01c.05,0-.61,0-.24,0h.18c.09,0,.06,0,.06,0h0s0,0,0,0v-.03c0-.06.01-.15.02-.26l.02-.35c.02-.26.03-.55.02-.89,0-.17-.02-.36-.05-.59-.03-.22-.07-.48-.19-.8-.03-.09-.06-.16-.1-.26-.02-.05-.04-.09-.06-.14-.03-.05-.05-.1-.08-.15-.05-.09-.13-.21-.2-.32-.04-.05-.08-.11-.13-.17-.05-.06-.09-.11-.15-.17-.05-.06-.11-.11-.17-.17.85-.2-7.62,1.51-4.04.8v.03s-.04.05-.04.05c-.03.07-.06.14-.09.21-.05.15-.1.29-.14.44-.15.6-.14,1.15-.08,1.6.03.23.07.42.12.61v.04s.01.02.01.02h-.37c-.36-.01-.77,0-1.21.03-.22.02-.45.04-.69.08-.23.04-.43.08-.59.12-.32.07-.49.1-.54.1h-.42c-.18.01-.35.02-.53.03l-.52.03-.52.04c-.69.06-1.38.13-2.06.23-.68.1-1.35.21-2.02.33-.33.06-.66.13-.99.2-.35.07-.6.13-.9.19-.29.06-.6.11-.91.17l-.97.17c-.66.12-1.36.26-2.09.46l-.27.08-.27.08-.48.15-.92.29c-.61.19-1.2.39-1.8.57-.59.18-1.18.35-1.76.51-.29.08-.58.15-.87.22-.14.04-.29.07-.43.1l-.46.1c-.34.07-.7.16-1.1.27-.1.03-.2.06-.3.09l-.16.05-.08.03-.08.03c-.11.04-.22.08-.34.13l-.18.08-.19.09-.09.05s-.07.04-.1.06l-.21.12s-.07.05-.11.07l-.11.08c-.08.05-.15.1-.23.17-.08.07-.17.14-.25.21-.09.08-.18.18-.27.28l-.06.07-.02.02c.23,1.65-.53-3.66.5,3.7l.05.03c.07.05.14.09.21.13.14.09.3.15.45.22.15.06.31.11.46.14.07.02.15.03.22.04l.11.02s.07,0,.1.01c.07,0,.13.01.2.02.04,0,.06,0,.09,0h.09c.06,0,.12,0,.17,0h.15c.4-.04.66-.11.82-.14l.11-.02h.07s.02-.02.02-.02h0s0,0,0,0l.42-.04c.32-.03.67-.06,1.04-.1.19-.02.38-.05.57-.08l.47-.07.45-.07.46-.06h0c2.23-.31,4.55-.49,6.92-.71,1.19-.11,2.39-.23,3.6-.39.3-.04.61-.08.91-.12l.89-.13c.55-.08,1.1-.15,1.67-.22,1.14-.13,2.31-.25,3.51-.39.6-.07,1.21-.15,1.83-.24.31-.05.62-.1.93-.15l.87-.15c1.15-.2,2.3-.39,3.43-.56.57-.08,1.13-.16,1.69-.23.28-.03.56-.07.84-.1.28-.03.55-.06.85-.09,2.31-.22,4.65-.4,7-.6,1.18-.1,2.36-.2,3.55-.31l.9-.09c.32-.03.63-.07.94-.11.62-.08,1.22-.17,1.81-.25,1.17-.18,2.28-.34,3.34-.43.26-.02.52-.04.78-.05.06,0,.14,0,.16,0,.03,0,.07,0,.12,0,.09,0,.21,0,.35.02.28.01.66.04,1.14.02.06,0,.12,0,.19-.01.07,0,.15-.01.22-.02.07,0,.15-.02.22-.03l.11-.02s.07-.01.1-.02c.26-.05.47-.11.62-.16.15-.04.24-.07.28-.08h.02s0,0,0,0c-.02,0,.04,0,.08,0,.08,0,.18-.01.28-.01.11,0,.22,0,.34,0,.24,0,.5.02.78.03l.44.03h.06s.03,0,.03,0c-.11,1.1,1.01-9.61.53-5.07h0s-.06-.01-.06-.01l-.15-.03c-.22-.04-.52-.12-.94-.2-.21-.04-.44-.07-.69-.09-.12,0-.25-.01-.38-.02h-.28s-1.74,0-1.74,0h-2.51s0,0,0,0h-3.6c-1.24,0-2.47.04-3.7.09-2.46.11-4.89.31-7.31.55-1.21.12-2.41.25-3.61.38l-3.57.4c-2.38.26-4.78.52-7.18.81-1.2.15-2.41.3-3.61.47-.6.08-1.21.17-1.81.26l-.9.14c-.26.04-.52.08-.79.11-1.08.13-2.26.19-3.53.31-.32.03-.64.07-.97.1l-.47.06c-.13.02-.26.03-.4.05-.54.06-1.11.11-1.7.16-.6.05-1.22.1-1.87.17-.32.04-.66.08-.99.13l-.49.08c-.13.02-.26.04-.4.06-1.08.17-2.29.28-3.6.49-.16.03-.33.06-.49.09-.08.01-.17.03-.25.05l-.23.05-.46.09c-.18.04-.38.08-.6.15l-.09.02-.09.03c-.06.02-.13.04-.2.07-.03.01-.07.03-.11.04-.04.01-.07.03-.11.04-.09.04-.16.07-.26.12l-.07.04s-.05.02-.08.04c-.06.03-.11.07-.17.1-.03.02-.07.04-.1.06l-.1.07c-.06.04-.15.12-.23.18-.04.04-.08.07-.12.11-.05.05-.1.1-.14.15-.05.05-.09.1-.13.16-.05.06-.1.14-.15.21-.05.07-.09.15-.13.23-.05.09-.09.19-.13.29-.04.1-.07.2-.1.31-.03.11-.05.23-.06.34-.01.11-.02.23-.02.34,0,.11,0,.22.02.32.01.1.03.23.05.3.02.09.05.17.07.25.03.08.06.17.09.24.03.06.06.12.09.18.03.06.06.12.1.17.04.06.06.1.09.14.06.08.12.16.18.23.03.04.05.06.08.09l.07.08.08.08s.05.05.07.07c.04.04.08.07.13.11.09.08.15.12.23.18.03.03.08.06.1.08l.09.06c.13.09.23.15.35.21.33.19.65.31.94.4.29.09.54.14.78.18.24.04.45.06.65.07.2.02.38.02.55.03l.94.03c.33,0,.66,0,.99,0,1.3-.02,2.54-.12,3.73-.2.59-.04,1.17-.08,1.73-.1.28-.01.56-.02.83-.02h.43s.45,0,.45,0c.6,0,1.24,0,1.91-.04.33-.02.68-.04,1.02-.07.17-.02.35-.04.52-.06.09-.01.18-.02.26-.04l.13-.02h.06c.15-.03.34-.04.58-.04.24,0,.53,0,.86,0,.33,0,.72,0,1.14-.04.1,0,.21-.02.32-.03l.24-.03.44-.06c2.33-.31,4.69-.55,7.07-.78l3.59-.36,3.58-.38c2.36-.24,4.72-.45,7.09-.62l1.78-.12,1.8-.11c1.29-.08,2.48-.23,3.57-.29.27-.02.54-.03.8-.03.13,0,.26,0,.39,0h.24c.1,0,.19,0,.29,0,.75-.02,1.43-.1,2.02-.17.3-.03.57-.07.83-.09.13-.01.25-.02.37-.03.06,0,.12,0,.18,0h.06s0,0,0,0c0,0,0,0,.01,0h.06s.24.02.24.02h.09s.09.01.09.01h.1s.12,0,.12,0h.06s.07,0,.07,0h.13c.1-.01.19-.02.31-.03.06,0,.11-.01.17-.03.06-.01.12-.02.18-.04.06-.01.13-.03.19-.05.06-.02.13-.04.2-.06.07-.02.13-.05.2-.08.89-8.92.22-2.49.41-4.49l-.04-.03-.17-.11c-.24-.14-.49-.27-.74-.38-.51-.21-1.01-.33-1.43-.4-.11-.02-.2-.03-.3-.05l-.27-.03-.48-.05-1.77-.19c-.61-.07-1.23-.13-1.87-.18-.64-.05-1.3-.08-1.97-.09h-1.35s0,0,0,0c-2.72,0-5.52-.11-8.39-.08-.72.01-1.44.03-2.16.06h-.14s-.08,0-.08,0h-.09c-.12.01-.24.02-.35.03-.22.02-.44.05-.63.08l-.54.08c-.16.02-.31.05-.44.06-.13.01-.25.03-.35.03-.05,0-.1,0-.15,0h-.22c-.44,0-.86.02-1.26.05-.81.07-1.55.18-2.24.28-.34.05-.67.1-.99.14-.16.02-.31.04-.46.05l-.24.02-.25.02c-.67.06-1.35.12-2.02.16-.68.05-1.35.09-2.03.12h-.25s-.13.02-.13.02h-.06s-.03,0-.03,0h0c-.55,10.15-.12,2.82-.23,5.08h.1c.14.03.26.03.42.03.15,0,.31-.02.45-.05l.11-.02.09-.02h0s0,0,0,0l.28.05c.28.03.52.03.74.02.11,0,.21-.02.31-.03.09-.01.19-.03.27-.05.17-.03.32-.07.46-.11.14-.04.25-.08.36-.11l.15-.05.06-.02.08-.03.34-.13c.11-.04.22-.09.33-.14.11-.05.22-.1.32-.15.21-.1.41-.21.61-.32.19-.11.39-.23.57-.35.19-.12.36-.24.54-.37.17-.13.34-.25.5-.38.16-.13.32-.26.47-.39.15-.13.3-.26.44-.39.29-.26.57-.52.83-.77l.38-.37c.08-.08.18-.16.28-.25.1-.09.22-.18.34-.28l.4-.32h0c.22-.18.47-.38.72-.61.13-.11.26-.24.39-.36l.29-.28c.37-.36.75-.73,1.14-1.09.77-.72,1.57-1.44,2.37-2.16l1.21-1.09c.38-.34.77-.67,1.17-1,.81-.67,1.66-1.34,2.53-2.06l.33-.27.16-.14.06-.05.08-.07c.05-.05.1-.09.14-.13.17-.17.3-.31.41-.43l.25-.28c.06-.07.11-.11.12-.12,0,0,0,0,0,0h0s0,0,0,0h0s-.07-.09-.07-.09l-.07-.09-.05-.06s-.07-.09-.1-.13l-.05-.07-.02-.03-.02-.02s-.05-.07-.07-.1c-.02-.03-.05-.07-.07-.1-.02-.03-.03-.05-.05-.08-.02-.03-.03-.05-.05-.08-1.01-.77,2.26,1.71-2.27-1.73h0s-.02,0-.02,0h-.03s-.08-.03-.12-.05h-.03s-.02-.02-.03-.03c-.03-.01-.06-.02-.09-.03-.06-.02-.11-.05-.17-.08l-.04-.02s-.04-.02-.05-.03c-.04-.02-.07-.04-.11-.06-.04-.02-.07-.04-.11-.06l-.03-.02h-.01s0,0,0,0h0s-.01.01-.01.02c-.03.05-.13.16-.27.31-.14.14-.32.31-.53.52-.21.21-.46.44-.75.78l-.1.12-.07.08-.13.17-.26.33c-.34.44-.67.86-.98,1.24l-.23.28-.26.3c-.19.22-.38.45-.56.67-.73.9-1.4,1.8-2.04,2.67h0c-.36.48-.71.95-1.06,1.41-.35.45-.71.91-1.08,1.36-.74.91-1.51,1.82-2.28,2.77-.39.47-.77.95-1.16,1.45l-.29.37-.28.37-.55.73c-.73.97-1.45,1.95-2.16,2.91-.71.97-1.42,1.93-2.13,2.88l-2.16,2.86c-1.45,1.92-2.92,3.87-4.32,5.9l-.51.74-.25.36-.25.36c-.17.24-.34.47-.51.71-.17.24-.34.47-.52.71-.7.94-1.41,1.88-2.14,2.82l-2.21,2.84c-.37.48-.74.96-1.11,1.44l-.55.73-.28.37-.16.22-.15.21c-.19.27-.34.5-.47.67-.13.18-.24.31-.3.36,0,0-.01.01-.02.02,0,0,0,0,0,0h0s0,0,0,0h0s0,0,0,0l.03.04s.04.06.06.09c.02.03.04.06.06.09l.05.07s.06.1.09.15c-.71-.59,6.26,5.28,3.31,2.79h0s0-.03,0-.03l.02-.04.03-.07s.04-.09.07-.14l.08-.14c.05-.1.11-.19.16-.29.23-.39.52-.8.85-1.24.33-.44.7-.9,1.09-1.4.39-.5.8-1.04,1.19-1.65l.1-.15s.06-.08.08-.12l.1-.13s.07-.09.11-.14c.15-.19.31-.39.5-.6l.59-.69.16-.19.16-.2.29-.36,1.12-1.41h0s4.74-5.94,4.74-5.94c1.62-2.01,3.14-4,4.73-5.86.79-.93,1.6-1.82,2.43-2.67.86-.87,1.78-1.75,2.71-2.71.46-.48.93-.98,1.38-1.5l.62-.72c.2-.23.4-.46.6-.69.81-.92,1.66-1.82,2.52-2.74,1.72-1.82,3.52-3.66,5.24-5.64l.59-.69c.12-.13.3-.3.53-.52.11-.11.24-.23.38-.36.14-.13.28-.28.44-.45.08-.08.16-.18.24-.27.08-.1.16-.2.23-.3.14-.2.26-.37.35-.52.09-.14.17-.26.22-.34.06-.08.1-.13.12-.16l.16-.19.17-.2c.11-.14.22-.27.33-.41.44-.55.85-1.12,1.24-1.7.19-.29.38-.58.57-.88.09-.15.18-.3.27-.44l.13-.22.07-.11.03-.06c2.14,1.12-2.9-1.54-2.4-1.26-.01,0-.03,0-.04,0-.01,0-.03,0-.04,0-.01,0-.03,0-.05,0-.14-.01-.31-.06-.52-.14-.05-.02-.11-.04-.16-.06-.05-.02-.1-.05-.17-.07-.12-.05-.24-.11-.36-.17-.13-.06-.27-.13-.4-.2l-.43-.23s0,0,0,0h0s0,0,0,0h0s-.02.05-.02.05l-.03.05s-.06.08-.09.13c-.13.18-.3.4-.48.61-.09.11-.18.22-.28.33l-.08.09s-.1.12-.12.14l-.13.15-.61.71c-.11.13-.23.27-.35.42-.06.07-.12.15-.18.23l-.16.21-.56.75c-.38.51-.78,1.04-1.17,1.59l-.29.42-.25.36c-.14.2-.3.41-.48.63-.35.43-.75.89-1.17,1.38-.21.25-.43.5-.66.77l-.62.76h0s-1.69,2.11-1.69,2.11c-.68.85-1.35,1.7-2.02,2.56-.33.43-.67.87-1,1.3l-.25.33-.26.35c-.17.23-.33.46-.5.69-.65.91-1.24,1.8-1.84,2.62-.3.41-.59.8-.9,1.17l-.26.32-.27.33c-.18.22-.35.45-.52.67-.68.89-1.32,1.78-1.95,2.63-.31.43-.62.85-.94,1.26l-.49.63c-.17.22-.33.44-.5.66-1.32,1.76-2.56,3.51-3.83,5.16-.63.83-1.28,1.63-1.93,2.4-.16.19-.33.38-.5.57l-.28.31-.15.17-.14.17c-.38.45-.74.9-1.08,1.34-.68.87-1.3,1.7-1.93,2.41-.08.09-.16.18-.23.26l-.12.13-.12.12c-.08.08-.16.17-.24.24l-.12.12-.03.03h0c1.81,1.34-4.06-2.97,4.05,3v-.02s.06-.09.06-.09c.24-.46.48-.93.72-1.39,1.96-3.69,4.17-7.26,6.6-10.67h0c.24-.34.49-.68.74-1.02l.75-1.01.77-1.01c.14-.18.28-.36.41-.54l.4-.54c1.05-1.45,2.02-2.91,2.98-4.3.48-.7.96-1.38,1.44-2.04l.37-.49.37-.48c.25-.32.49-.62.77-.95.54-.65,1.16-1.38,1.74-2.27l.35-.54c.1-.15.2-.29.3-.44.21-.3.45-.6.7-.91.25-.31.52-.63.8-.97l.42-.51c.14-.18.28-.35.45-.56.31-.4.55-.75.78-1.04.11-.15.21-.28.31-.39.05-.06.09-.11.14-.15.02-.02.04-.04.06-.07h0s0-.01,0-.01c-1.06-.59,2.37,1.31-2.37-1.32,0,0-.02.02-.03.02s-.02.01-.03.02h-.01s-.02.02-.02.02c-.03.02-.06.03-.09.05-.04.02-.08.04-.12.06-.03.01-.09.04-.14.05-.05.02-.1.03-.16.05-.06.02-.12.03-.18.04-.07.01-.14.03-.21.04-.04,0-.07.01-.11.01l-.12.02c-.08.01-.16.02-.24.03-.08,0-.18.02-.26.02,0,0,0,0,0,0,0,0,0,.01,0,.03v.02s0,.03,0,.03c0,.02,0,.04,0,.07-.02.2-.08.51-.17.82-.09.31-.21.65-.33.94l-.04.1-.05.1-.05.12v.03s-.02.02-.02.02c0,0,0,0,0,0h0s-.17-.13-.17-.13c-1.4-1.05-2.79-2.05-4.09-3.07h0c-.73-.57-1.44-1.15-2.1-1.75-.08-.07-.16-.15-.25-.23l-.26-.23c-.3-.28-.64-.53-.91-.71-.14-.09-.26-.17-.37-.23-.11-.07-.2-.12-.27-.17-.07-.05-.14-.09-.19-.13-.05-.04-.11-.08-.17-.13-.23-.19-.49-.44-.79-.75-.29-.31-.62-.67-1-1.06l-.1-.1-.06-.06-.06-.06-.16-.14-.26-.23c-.17-.15-.33-.3-.49-.44-.16-.14-.3-.29-.44-.42-.13-.13-.25-.26-.31-.34l-.02-.02h0s0,0,0,0h0s0,0,0,0c0,0,0,0-.02.01-.38.28-.73.52-1.04.7-.31.18-.59.32-.78.38-.1.03-.19.04-.24.04-.02,0-.04,0-.05,0,1.54-1.72-2.1,2.34-1.72,1.93h0s0,0,0,0h.01s.22.2.22.2l.22.2c.3.27.61.57.93.89.64.64,1.32,1.36,2.13,2.08.1.09.2.18.31.27.11.09.21.18.32.27.28.22.31.24.43.35.22.2.48.48.8.84.32.35.69.77,1.17,1.2l.54.48c.17.15.34.3.5.45,1.34,1.22,2.63,2.5,3.88,3.83h0c.8.85,1.59,1.72,2.37,2.6.39.44.77.89,1.16,1.33l1.16,1.36,4.68,5.49,4.68,5.49.13.15s.08.1.12.14c.08.1.15.19.23.3.15.2.3.41.45.63.3.44.6.92.91,1.43l.26.41c.09.15.19.29.28.43.19.28.37.53.53.77.17.24.32.46.46.67.07.11.13.21.19.31l.09.15.1.18c.14.25.3.54.47.83.17.29.36.6.58.91.22.32.46.65.81,1.02.04.05.09.09.13.14l.16.15.08.07.04.04.05.04c.07.05.13.11.2.16l.1.08s.08.06.13.08c.09.05.17.11.26.16-3.33,2.24,4.61-3,3.78-2.5v-.07s-.03-.14-.03-.14l-.02-.14s-.02-.08-.03-.12c-.02-.08-.04-.16-.06-.24-.02-.08-.04-.14-.06-.21-.04-.14-.09-.26-.14-.38-.02-.06-.05-.12-.07-.17l-.07-.16c-.05-.1-.1-.2-.15-.3-.19-.38-.39-.7-.58-1-.1-.15-.19-.29-.28-.43l-.26-.38-.52-.75c-1.41-2.02-2.88-3.97-4.36-5.89l-2.22-2.86c-.74-.94-1.47-1.9-2.23-2.85-1.5-1.91-3.06-3.82-4.75-5.67-.21-.23-.43-.46-.64-.69-.16-.17-.33-.36-.5-.57-.34-.41-.71-.88-1.13-1.39-.21-.25-.44-.52-.68-.78l-.18-.19-.16-.17-.32-.33-1.26-1.31c-1.68-1.73-3.34-3.43-4.89-5.16l-.58-.65c-.19-.22-.38-.44-.57-.66-.37-.43-.75-.89-1.14-1.36-.78-.94-1.61-1.91-2.58-2.86-.48-.47-1-.94-1.56-1.39l-.21-.17-.03-.02c.85-.62-7.54,5.3-3.98,2.81l.03.08.06.16c.07.22.16.42.25.62.18.39.38.76.59,1.09.42.67.86,1.22,1.29,1.73.43.51.83.95,1.19,1.37l.28.34c.13.15.26.3.38.43.25.26.47.49.66.69.1.1.18.19.26.28.04.04.08.08.11.13l.05.06.07.08.56.67c.75.9,1.49,1.82,2.22,2.75.73.93,1.46,1.88,2.19,2.83l1.1,1.43,1.11,1.44c1.52,1.95,3.06,3.78,4.46,5.62.17.23.35.46.52.69l.52.71c.35.48.69.96,1.03,1.44.34.48.68.97,1.01,1.45l.16.24c.13-.05.27.18.34.3ZM484.17,13.06c-.18-.19-.4-.41-.62-.65-.12-.12-.23-.24-.35-.36-.06-.06-.12-.12-.18-.18-.03-.03-.06-.06-.09-.09-.04-.04-.08-.08-.12-.11-.12-.11-.23-.21-.33-.3-.1-.09-.18-.17-.26-.24-.15-.14-.24-.25-.26-.29-.03-.06.28.22.69.57.05.05.11.09.16.14.05.04.14.13.2.19.11.11.21.22.31.32.2.2.37.39.5.51.35.35.68.67,1.01.95.17.14.33.26.5.37.18.12.38.24.63.39.24.15.52.34.78.58.19.18.39.35.58.53.38.34.76.67,1.16,1,1.58,1.32,3.3,2.58,5.02,3.85.16.12.33.24.51.37.13.1.27.19.4.3.07.05.13.11.2.16.07.05.14.1.23.12.08.03.18.02.25-.04.07-.05.12-.13.17-.21.17-.32.34-.64.51-.96l.03-.06.05-.11.1-.2c.06-.13.12-.27.18-.42.12-.29.22-.58.31-.86.06-.2.14-.46.19-.73.03-.14.04-.27.05-.4,0-.12,0-.24,0-.31,0-.02,0-.03,0-.05,0,0,0-.02,0-.03,0,0,0,0,0,0h0s.03-.01.04-.02c.03-.01.06-.03.09-.04.02,0,.03-.01.04-.02.01,0,.02-.01.03-.02.02-.01.05-.03.06-.04.01,0,.03-.02.04-.03,0,0,.01-.01.02-.02h0s0,0,0,0c.61.14-1.37-.31,1.38.31h0s0,0,0,0h0s-.03.04-.03.04c-.04.04-.08.09-.12.13-.15.17-.27.33-.33.42-.09.14-.08.14,0,.05.08-.09.23-.27.4-.45.04-.05.09-.09.13-.13h0s0-.01,0-.01c.31.08-2.7-.68-1.43-.36h0s0,0,0,0h0s-.01.02-.02.02c-.01.01-.03.02-.04.03-.02.02-.04.03-.07.04-.01,0-.02.01-.03.02-.01,0-.03.02-.04.02-.03.02-.06.03-.09.04h-.02s-.03.02-.03.02h-.03s-.01.02-.01.02h0s0,0,0,0c0,0,0,0,0,.01,0,0,0,0,0,.01v.02s0,.03,0,.05c0,.07,0,.17,0,.26,0,.1-.02.19-.03.26-.06.31-.15.66-.27,1,.08-.28.15-.55.19-.81.04-.26.06-.51.05-.66,0-.03,0-.05,0-.07,0-.01,0-.02,0-.02,0,0,0-.02,0-.02,0,0,0,0,0,0,0,0,0,0,0,0,0,0,0,0,0,0h.04c.1-.05.17-.07.24-.11.03-.02.05-.03.08-.04.01,0,.03-.02.04-.03l.03-.02s.02-.01.02-.02h.01s0-.02,0-.02h0c-1.32-.37,1.8.5,1.48.41h0s0,0,0,0l-.04.04c-.05.05-.1.1-.15.16-.2.22-.38.44-.55.66-.34.43-.64.82-.9,1.08-.17.17-.41.44-.68.76-.28.31-.59.68-.89,1.04-.3.37-.6.75-.84,1.1-.12.17-.23.34-.33.5-.05.09-.1.17-.15.24-.05.09-.1.16-.15.24-.62.97-1.34,1.81-1.97,2.62-.64.82-1.26,1.68-1.88,2.56-1.23,1.77-2.45,3.65-3.81,5.49-.17.23-.34.46-.52.69l-.51.67c-.34.44-.67.88-1,1.32-.66.89-1.3,1.79-1.93,2.69-1.25,1.81-2.42,3.65-3.49,5.5-.25.44-.5.87-.73,1.26-.23.4-.44.77-.63,1.08-.36.62-.61,1.01-.62.97-.01-.05.26-.59.63-1.25.37-.67.84-1.46,1.18-2.04,1.1-1.87,2.27-3.7,3.5-5.5.62-.9,1.24-1.78,1.89-2.66l.49-.65c.16-.22.33-.44.49-.65l.5-.65c.17-.22.34-.45.51-.67l-.03-.03c1.1-1.49,2.11-3.01,3.13-4.5.51-.74,1.02-1.48,1.55-2.2l.4-.53.4-.53c.27-.35.55-.69.84-1.04.58-.7,1.19-1.43,1.73-2.28l.18-.28c.06-.09.12-.17.17-.26.12-.17.24-.35.37-.52.26-.34.53-.69.81-1.03l.87-1.05c.15-.18.29-.36.44-.54.15-.19.3-.39.43-.57.27-.37.53-.72.79-1.03.06-.08.13-.15.19-.22.03-.03.06-.07.1-.1l.05-.05h0c-.58-.12,1.32.23-1.31-.26h-.01s-.02.03-.03.04c-.01,0-.02,0-.03.02-.01.01-.03.02-.04.03-.02,0-.03.02-.05.02,0,0-.02,0-.03.01l-.03.02h-.02s0,.01,0,.01c0,0,0,0,0,0,0,0,0,0,0,.01,0,.03.02.07.02.13.01.12,0,.29,0,.46-.02.18-.05.36-.09.56-.08.38-.2.78-.35,1.17-.07.19-.15.39-.23.57-.04.08-.08.18-.13.28l-.1.2c-.12.24-.25.47-.38.7l-.1.18c-.03.06-.06.12-.1.17-.04.06-.08.11-.13.15-.05.04-.12.07-.18.07-.14,0-.26-.08-.36-.15-.11-.08-.21-.17-.31-.25-.1-.09-.21-.16-.32-.25l-.36-.27-1.07-.8c-1.46-1.08-2.91-2.14-4.28-3.28-.34-.28-.68-.57-1-.86-.17-.14-.32-.3-.49-.44l-.14-.13c-.05-.05-.11-.1-.17-.14-.11-.09-.23-.18-.34-.25-.22-.16-.44-.28-.62-.4-.18-.11-.34-.22-.49-.33-.3-.22-.6-.5-.89-.8Z"/>
    </g>
  </g>
</svg>