<svg width="46" height="46" viewBox="0 0 46 46" fill="none" xmlns="http://www.w3.org/2000/svg">
<g clip-path="url(#clip0_108_3897)">
<path d="M0 0V38.64C0 40.592 0.775426 42.464 2.15569 43.8443C3.53596 45.2246 5.40801 46 7.36 46H38.64C40.592 46 42.464 45.2246 43.8443 43.8443C45.2246 42.464 46 40.592 46 38.64V7.36C46 5.40801 45.2246 3.53596 43.8443 2.15569C42.464 0.775426 40.592 0 38.64 0L0 0ZM27.324 25.07C30.314 25.07 31.694 27.14 31.74 30.13H28.658C28.704 29.578 28.566 28.98 28.382 28.52C28.198 28.152 27.83 28.014 27.324 28.014C26.45 28.014 25.99 28.52 25.99 29.624C25.944 30.728 26.542 31.326 27.462 31.694C28.842 32.246 30.544 33.12 31.142 34.178C31.694 35.006 31.97 36.064 31.97 37.352C31.97 40.434 30.222 42.32 27.186 42.32C24.012 42.32 22.586 40.342 22.54 37.168H25.76C25.76 38.686 26.266 39.422 27.278 39.422C27.784 39.422 28.152 39.284 28.336 38.962C28.704 38.364 28.796 36.708 28.244 36.064C27.646 35.282 26.496 34.914 25.714 34.5C24.656 33.994 23.874 33.396 23.368 32.706C22.908 32.016 22.678 31.004 22.678 29.762C22.678 27.002 24.472 25.024 27.324 25.07ZM37.674 25.07C40.71 25.07 42.09 27.14 42.136 30.13H39.054C39.054 29.578 38.962 28.98 38.732 28.52C38.548 28.152 38.226 28.014 37.72 28.014C36.8 28.014 36.34 28.52 36.34 29.624C36.34 30.728 36.892 31.326 37.858 31.694C39.192 32.246 40.94 33.12 41.538 34.178C42.044 35.006 42.32 36.064 42.32 37.352C42.366 40.434 40.618 42.32 37.582 42.32C34.362 42.32 32.936 40.296 32.89 37.168H36.11C36.11 38.594 36.616 39.422 37.628 39.422C38.134 39.422 38.502 39.284 38.686 38.962C39.1 38.364 39.192 36.708 38.594 36.064C38.042 35.282 36.892 34.914 36.064 34.5C35.006 33.994 34.224 33.396 33.764 32.706C33.304 32.016 33.074 31.004 33.074 29.762C33.028 27.002 34.822 25.024 37.674 25.07ZM16.5312 25.1045C17.894 25.093 19.251 25.484 20.056 26.312C20.884 27.14 21.344 28.474 21.298 30.13H17.894C17.94 29.256 17.71 28.612 17.066 28.29C16.468 28.014 15.594 28.198 15.364 28.75C15.134 29.256 14.996 29.854 15.042 30.406V37.122C15.042 38.548 15.548 39.284 16.514 39.284C16.7183 39.293 16.9217 39.2515 17.1063 39.1633C17.2908 39.075 17.4507 38.9427 17.572 38.778C17.894 38.318 17.94 37.72 17.894 37.168H21.298C21.482 40.296 19.412 42.366 16.376 42.32C13.432 42.32 11.592 40.664 11.638 37.582V29.854C11.638 28.29 12.098 27.094 12.972 26.312C13.8 25.53 15.1685 25.116 16.5312 25.1045Z" fill="#2B2B2B"/>
</g>
<defs>
<clipPath id="clip0_108_3897">
<rect width="46" height="46" fill="white"/>
</clipPath>
</defs>
</svg>
