<svg width="41" height="41" viewBox="0 0 41 41" fill="none" xmlns="http://www.w3.org/2000/svg">
<g clip-path="url(#clip0_108_3912)">
<path d="M41 31.7546C40.4033 31.9803 39.7446 31.9798 39.1482 31.7532C38.5519 31.5266 38.059 31.0896 37.7627 30.5246L31.869 22.3741L31.0148 21.2346L24.1764 30.5348C23.8979 31.0761 23.4318 31.4974 22.8652 31.72C22.2986 31.9426 21.6704 31.9513 21.0979 31.7443L29.9095 19.9226L21.7129 9.24385C22.3023 9.03146 22.9469 9.02865 23.5381 9.23588C24.1293 9.44311 24.631 9.84773 24.9588 10.3816L31.0678 18.6329L37.2109 10.4158C37.4916 9.88411 37.9578 9.47411 38.5209 9.26372C39.0841 9.05332 39.7049 9.05719 40.2654 9.2746L37.0845 13.4959L32.7761 19.1044C32.6565 19.2111 32.5607 19.3419 32.4952 19.4882C32.4296 19.6345 32.3957 19.7931 32.3957 19.9534C32.3957 20.1137 32.4296 20.2723 32.4952 20.4186C32.5607 20.5649 32.6565 20.6957 32.7761 20.8024L40.9829 31.7563L41 31.7546ZM0.00343716 19.7757L0.720937 16.2309C2.69235 9.22164 10.7284 6.30552 16.2565 10.6447C19.4938 13.1884 20.3019 16.7896 20.143 20.8486H1.90652C1.61098 28.097 6.8419 32.4738 13.53 30.2376C14.6142 29.8473 15.5847 29.1942 16.3545 28.3367C17.1243 27.4793 17.6694 26.4443 17.9409 25.3244C18.2946 24.1866 18.8771 23.9919 19.9465 24.3199C19.7683 25.7077 19.2777 27.0371 18.5116 28.2079C17.7456 29.3788 16.7239 30.3607 15.5236 31.0798C13.541 32.1643 11.2662 32.5941 9.0245 32.3078C6.78282 32.0216 4.68905 31.0338 3.04256 29.4859C1.41457 27.6535 0.430651 25.3389 0.240896 22.8951C0.240896 22.4937 0.104229 22.1179 0.0119788 21.7574C0.00366271 21.0974 -0.000323485 20.4374 2.04936e-05 19.7774L0.00343716 19.7757ZM1.92873 19.2871H18.421C18.3185 14.0323 15.0026 10.3047 10.5797 10.2706C5.65631 10.2022 2.13373 13.8478 1.91677 19.2632L1.92873 19.2871Z" fill="#2B2B2B"/>
</g>
<defs>
<clipPath id="clip0_108_3912">
<rect width="41" height="41" fill="white"/>
</clipPath>
</defs>
</svg>
