<svg width="38" height="38" viewBox="0 0 38 38" fill="none" xmlns="http://www.w3.org/2000/svg">
<path d="M25.099 14.2199H17.8347V0H25.099C29.0194 0 32.2082 3.18883 32.2082 7.10917C32.2082 11.0295 29.0194 14.2199 25.099 14.2199ZM20.1638 11.8908H25.099C27.7353 11.8908 29.8791 9.74542 29.8791 7.11075C29.8791 4.47608 27.7337 2.33067 25.099 2.33067H20.1638V11.8908ZM20.1638 14.2199H12.901C8.9807 14.2199 5.79187 11.0311 5.79187 7.11075C5.79187 3.19042 8.9807 0 12.901 0H20.1654V14.2199H20.1638ZM12.901 2.32908C10.2648 2.32908 8.12095 4.4745 8.12095 7.10917C8.12095 9.74383 10.2648 11.8908 12.901 11.8908H17.8363V2.32908H12.901ZM20.1638 26.1092H12.901C8.9807 26.1092 5.79187 22.9203 5.79187 19C5.79187 15.0797 8.9807 11.8908 12.901 11.8908H20.1654V26.1092H20.1638ZM12.901 14.2199C10.2648 14.2199 8.12095 16.3653 8.12095 19C8.12095 21.6347 10.2664 23.7801 12.901 23.7801H17.8363V14.2199H12.901ZM12.939 38C8.99812 38 5.79028 34.8112 5.79028 30.8908C5.79028 26.9705 8.97912 23.7817 12.8994 23.7817H20.1638V30.8133C20.1638 34.7763 16.9227 38 12.939 38ZM12.901 26.1092C11.6338 26.1108 10.4189 26.615 9.52285 27.5111C8.62678 28.4071 8.12263 29.622 8.12095 30.8893C8.12095 33.5255 10.2822 35.6693 12.9406 35.6693C15.6402 35.6693 17.8379 33.4907 17.8379 30.8117V26.1092H12.901ZM25.099 26.1092H24.9439C21.0235 26.1092 17.8347 22.9203 17.8347 19C17.8347 15.0797 21.0235 11.8908 24.9439 11.8908H25.099C29.0194 11.8908 32.2082 15.0797 32.2082 19C32.2082 22.9203 29.0194 26.1092 25.099 26.1092ZM24.9454 14.2199C22.3092 14.2199 20.1654 16.3653 20.1654 19C20.1654 21.6347 22.3108 23.7801 24.9454 23.7801H25.1006C27.7369 23.7801 29.8807 21.6347 29.8807 19C29.8807 16.3653 27.7337 14.2199 25.099 14.2199H24.9454Z" fill="#2B2B2B"/>
</svg>
