<svg width="41" height="41" viewBox="0 0 41 41" fill="none" xmlns="http://www.w3.org/2000/svg">
<g clip-path="url(#clip0_108_3906)">
<path d="M20.4965 40.9999C19.9481 40.9999 19.4014 40.8564 18.9214 40.578L13.9057 37.6106C13.1575 37.1921 13.5231 37.0434 13.7691 36.9563C14.7684 36.6095 14.97 36.5292 16.0377 35.9245C16.1488 35.8613 16.2957 35.8852 16.4102 35.9535L20.2642 38.241C20.4042 38.3179 20.6007 38.3179 20.7288 38.241L35.7536 29.5695C35.8937 29.4892 35.9825 29.3286 35.9825 29.1629V11.8233C35.9825 11.6542 35.892 11.4953 35.7485 11.4099L20.7305 2.74523C20.5922 2.66494 20.4077 2.66494 20.2676 2.74523L5.25303 11.4116C5.10782 11.4953 5.01557 11.6593 5.01557 11.8233V29.1629C5.01557 29.3286 5.10782 29.4858 5.25303 29.5644L9.36841 31.9424C11.6012 33.0596 12.9696 31.7442 12.9696 30.4219V13.3027C12.9696 13.0601 13.1643 12.8705 13.4069 12.8705H15.3117C15.5492 12.8705 15.7473 13.0619 15.7473 13.3027V30.4219C15.7473 33.403 14.1244 35.1113 11.2988 35.1113C10.431 35.1113 9.74595 35.1113 7.83774 34.17L3.89491 31.9031C2.92116 31.341 2.31982 30.2887 2.31982 29.1629V11.8233C2.31982 10.6975 2.92287 9.64519 3.89491 9.08485L18.9197 0.403105C19.8712 -0.13502 21.1337 -0.13502 22.0767 0.403105L37.0998 9.08485C38.0735 9.6469 38.6783 10.6975 38.6783 11.8233V29.1629C38.6783 30.2887 38.0735 31.3376 37.0998 31.9031L22.0767 40.578C21.5984 40.8564 21.0534 40.9999 20.4965 40.9999ZM32.6274 23.9046C32.6274 20.6588 30.4339 19.7944 25.8162 19.1845C21.1508 18.5678 20.6759 18.2484 20.6759 17.1567C20.6759 16.2547 21.0773 15.0504 24.5333 15.0504C27.6202 15.0504 28.758 15.7149 29.2261 17.7956C29.2671 17.9921 29.4464 18.1356 29.648 18.1356H31.5972C31.7185 18.1356 31.833 18.0826 31.915 17.9972C31.997 17.905 32.0414 17.7871 32.0294 17.6624C31.7271 14.0783 29.3457 12.4076 24.5333 12.4076C20.2488 12.4076 17.6931 14.215 17.6931 17.2473C17.6931 20.5358 20.2351 21.4446 24.3471 21.8512C29.2671 22.333 29.648 23.0522 29.648 24.0191C29.648 25.6984 28.3002 26.4142 25.1346 26.4142C21.1593 26.4142 20.2847 25.4165 19.9908 23.4383C19.9567 23.2264 19.7756 23.071 19.5586 23.071H17.6162C17.3754 23.071 17.1823 23.2623 17.1823 23.5032C17.1823 26.0349 18.5592 29.0519 25.1346 29.0519C29.8974 29.0536 32.6274 27.1795 32.6274 23.9046Z" fill="#2B2B2B"/>
</g>
<defs>
<clipPath id="clip0_108_3906">
<rect width="41" height="41" fill="white"/>
</clipPath>
</defs>
</svg>
