<svg width="41" height="41" viewBox="0 0 41 41" fill="none" xmlns="http://www.w3.org/2000/svg">
<g clip-path="url(#clip0_108_3909)">
<path d="M40.2474 25.1515C40.224 25.0799 40.1917 25.0115 40.1512 24.948C39.9138 24.4984 39.3367 24.3641 38.4303 24.5515C35.6059 25.1342 34.5122 24.7756 34.1157 24.5189C36.4083 21.0198 38.2926 16.7938 39.3109 12.8515C39.7745 11.0565 40.6745 6.8318 39.5197 4.7683C39.4459 4.62706 39.3596 4.49271 39.2619 4.36684C37.0592 1.55219 33.8263 0.0423691 29.9128 0.000856564C27.3594 -0.0261351 25.1799 0.592111 24.5895 0.819832C24.2971 0.765253 24.0032 0.718768 23.7082 0.680432C22.9686 0.546515 22.2194 0.473496 21.4679 0.462107C19.4483 0.430673 17.7031 0.913448 16.2578 1.89813C14.7932 1.34959 8.07693 -0.912077 3.92039 2.03275C1.59893 3.67736 0.527297 6.61689 0.73503 10.7698C0.804901 12.1673 1.60098 16.4654 2.85729 20.5818C3.64278 23.1554 4.46091 25.1976 5.30602 26.7011C6.25073 28.3995 7.22943 29.423 8.23461 29.7581C8.99892 30.0129 10.1696 30.0043 11.4089 28.5146C12.7776 26.8687 14.1256 25.3956 14.7309 24.7445C15.4742 25.1468 16.2793 25.3638 17.1055 25.3889C17.1056 25.3913 17.1058 25.3936 17.1062 25.3959C16.9623 25.5673 16.8215 25.7412 16.6839 25.9176C16.1049 26.6526 15.9845 26.8055 14.121 27.1892C13.5911 27.2985 12.1831 27.5887 12.1626 28.5755C12.1583 28.7846 12.2188 28.9699 12.3196 29.1337C12.7072 29.8565 13.894 30.1753 14.0535 30.2153C16.3333 30.785 18.3319 30.3725 19.813 29.0559C19.784 32.8671 19.9454 36.6022 20.4031 37.7468C20.781 38.6914 21.7045 41.0003 24.6213 41C25.0492 41 25.5204 40.9503 26.0385 40.8392C29.0826 40.1865 30.4045 38.8412 30.9158 35.875C31.1726 34.3876 31.6019 30.963 31.8363 28.8688C31.8651 28.7487 31.8973 28.6626 31.9336 28.6361C31.9348 28.6353 32.0527 28.5557 32.6634 28.6886C32.6884 28.694 32.7137 28.6978 32.7391 28.7002L33.1729 28.7383L33.1983 28.74C34.6449 28.8056 36.4636 28.4964 37.5225 28.004C38.6223 27.4936 40.6072 26.2405 40.2474 25.1515ZM4.05056 20.289C2.78042 16.1279 2.03832 11.9436 1.97955 10.7704C1.79403 7.06089 2.6921 4.47874 4.64848 3.09533C7.78618 0.87689 12.9165 2.17146 15.083 2.87325C15.0775 2.87872 15.0717 2.88367 15.0662 2.88931C11.6089 6.38114 11.6909 12.3466 11.6995 12.7114C11.6991 12.852 11.7107 13.0512 11.7271 13.3252C11.7866 14.3285 11.8973 16.1959 11.6016 18.3108C11.3267 20.276 11.9325 22.1996 13.2634 23.5882C13.4011 23.7318 13.545 23.8668 13.6936 23.9937C13.1011 24.6282 11.8137 26.0311 10.4435 27.6796C9.47367 28.8456 8.804 28.6221 8.5838 28.5486C7.9143 28.3254 7.19492 27.5457 6.46871 26.2897C5.64939 24.8564 4.82273 22.8189 4.05056 20.289ZM14.3129 28.9795C14.0206 28.9064 13.7541 28.7861 13.5745 28.6768C13.7264 28.6095 13.9801 28.5227 14.4002 28.4361C16.5925 27.9849 16.9311 27.6663 17.6704 26.7274C17.8399 26.5121 18.0319 26.2684 18.2979 25.9713C18.3551 25.9071 18.398 25.8315 18.4238 25.7495C18.7156 25.4911 18.8891 25.5618 19.1702 25.6783C19.4367 25.7887 19.696 26.1225 19.8014 26.4901C19.8511 26.6637 19.9071 26.9932 19.7242 27.2493C18.1793 29.4117 15.9289 29.3837 14.3129 28.9795ZM17.8901 22.1667L17.8004 22.4075C17.5732 23.0167 17.3619 23.583 17.2309 24.121C16.0907 24.1174 14.9813 23.6304 14.1379 22.7502C13.0653 21.6311 12.5781 20.0743 12.8012 18.4787C13.1134 16.2444 12.9981 14.2988 12.9361 13.2536C12.9276 13.1072 12.9199 12.9791 12.9153 12.8779C13.4204 12.4302 15.7612 11.1761 17.4302 11.5584C18.192 11.733 18.6561 12.2515 18.849 13.1437C19.8477 17.7627 18.9812 19.6879 18.2849 21.2349C18.1414 21.5537 18.0059 21.8549 17.8901 22.1667ZM30.4698 29.978C30.4409 30.28 30.4086 30.6203 30.3642 30.996L30.1148 31.7448C30.095 31.8041 30.0845 31.8662 30.0837 31.9288C30.0736 32.7397 29.9914 33.0373 29.8872 33.4138C29.7789 33.8054 29.6561 34.2494 29.5808 35.2204C29.3928 37.6365 28.0805 39.0243 25.4514 39.5877C22.8624 40.1431 22.4032 38.739 21.9985 37.5007C21.957 37.3708 21.9132 37.2418 21.8671 37.1135C21.4991 36.1128 21.5407 34.7016 21.5982 32.7486C21.6264 31.7899 21.5557 29.5005 21.0341 28.228C21.0416 27.7271 21.0522 27.2185 21.0666 26.7045C21.0683 26.6394 21.0595 26.5744 21.0405 26.5121C21.0239 26.3921 20.9989 26.2733 20.9655 26.1568C20.756 25.4251 20.2457 24.813 19.6335 24.5593C19.3902 24.4586 18.9436 24.2737 18.4072 24.4109C18.5217 23.9394 18.72 23.4072 18.9351 22.8309L19.0255 22.5883C19.1271 22.3149 19.2544 22.0319 19.3893 21.7321C20.118 20.1132 21.1158 17.8963 20.0327 12.8877C19.6271 11.0117 18.2724 10.0957 16.219 10.3084C14.9878 10.4359 13.8617 10.9327 13.2998 11.2174C13.1872 11.2745 13.0757 11.3338 12.9653 11.3953C13.1222 9.50517 13.7146 5.97285 15.9305 3.73801C16.0951 3.57215 16.268 3.41478 16.4486 3.26651C16.5383 3.24902 16.6228 3.2114 16.6958 3.15649C17.9812 2.18172 19.5906 1.70338 21.4826 1.7343C22.1814 1.74575 22.8521 1.79221 23.4885 1.87268C26.801 2.47811 29.0302 4.34429 30.3832 5.94312C31.7743 7.58705 32.5275 9.24277 32.8281 10.1359C30.5677 9.90594 29.0298 10.3525 28.2503 11.4667C26.5546 13.8906 29.1779 18.5954 30.4388 20.8564C30.67 21.2708 30.8697 21.6289 30.9324 21.7811C31.3429 22.7762 31.8745 23.4404 32.2627 23.9254C32.3816 24.074 32.497 24.2182 32.5847 24.3439C31.9 24.5412 30.67 24.9974 30.7821 27.2771C30.761 27.5441 30.7098 28.0406 30.6396 28.6691C30.5608 29.0239 30.5197 29.4554 30.4698 29.978ZM31.991 27.2086C31.9219 25.788 32.4508 25.6395 33.0104 25.4824C33.0878 25.4611 33.1647 25.438 33.241 25.413C33.3132 25.477 33.3898 25.5358 33.4703 25.589C34.4445 26.2321 36.1734 26.3087 38.6069 25.8186C38.2625 26.1208 37.7204 26.5009 36.9783 26.8454C36.2783 27.1705 35.1065 27.4143 33.9934 27.4666C32.7639 27.524 32.1383 27.3287 31.991 27.2086ZM32.9639 11.3703C32.9539 11.9696 32.8713 12.5135 32.7839 13.0816C32.6899 13.6925 32.5925 14.3242 32.5679 15.0909C32.5437 15.8371 32.637 16.6129 32.7272 17.3632C32.9093 18.8785 33.0962 20.4387 32.3727 21.9781C32.2526 21.7652 32.1456 21.5452 32.0522 21.3193C31.9622 21.1013 31.7671 20.7511 31.4968 20.2666C30.4452 18.3805 27.9821 13.9636 29.243 12.1613C29.8913 11.2342 31.5335 11.1942 32.9639 11.3703ZM33.3541 23.3521C33.3059 23.2906 33.2573 23.2295 33.2084 23.1686L33.1478 23.0927C34.3883 21.0436 34.1458 19.0163 33.9298 17.2186C33.8412 16.481 33.7575 15.7843 33.7786 15.13C33.8007 14.4363 33.8924 13.8414 33.9811 13.2661C34.0902 12.5571 34.2011 11.8237 34.1705 10.959C34.1934 10.8682 34.2026 10.7611 34.1907 10.634C34.1126 9.80464 33.1659 7.32329 31.2363 5.07683C30.1983 3.86852 28.6916 2.51911 26.6428 1.59268C27.5398 1.41057 28.7488 1.24504 30.1011 1.2751C33.6058 1.353 36.3786 2.66483 38.3425 5.1742C38.3842 5.22868 38.4222 5.28586 38.4564 5.34538C39.6917 7.66119 37.9846 16.0653 33.3541 23.3521ZM18.2924 12.9036C18.2497 13.21 17.7647 13.6253 17.2314 13.6253C17.1851 13.6254 17.139 13.6222 17.0932 13.6158C16.7732 13.5713 16.45 13.3698 16.2289 13.0766C16.1507 12.9733 16.0234 12.7725 16.0487 12.5908C16.0581 12.5223 16.0933 12.4225 16.2067 12.3366C16.4086 12.1838 16.8077 12.1271 17.2481 12.1884C17.7885 12.2638 18.3459 12.5195 18.2924 12.9036ZM31.8404 12.2007C31.8593 12.336 31.7567 12.5441 31.5788 12.7307C31.4621 12.8532 31.2167 13.0657 30.882 13.112C30.8395 13.1179 30.7967 13.1208 30.7539 13.1209C30.2525 13.1209 29.829 12.7204 29.796 12.4859C29.755 12.1843 30.2472 11.9553 30.7545 11.8845C31.2619 11.8138 31.7985 11.8996 31.8404 12.2007Z" fill="#2B2B2B"/>
</g>
<defs>
<clipPath id="clip0_108_3909">
<rect width="41" height="41" fill="white"/>
</clipPath>
</defs>
</svg>
