<svg width="47" height="47" viewBox="0 0 47 47" fill="none" xmlns="http://www.w3.org/2000/svg">
<path d="M27.8671 23.5078C27.8671 24.6688 27.406 25.7823 26.5852 26.6034C25.7645 27.4246 24.6512 27.8861 23.4902 27.8867C22.3289 27.8867 21.2151 27.4253 20.3939 26.6041C19.5727 25.7829 19.1114 24.6692 19.1114 23.5078C19.1114 22.3468 19.5724 21.2333 20.3932 20.4122C21.214 19.5911 22.3273 19.1295 23.4883 19.129C24.6496 19.129 25.7634 19.5903 26.5846 20.4115C27.4057 21.2327 27.8671 22.3465 27.8671 23.5078ZM33.0527 2.57324C30.4168 2.57324 26.9682 4.45324 23.4804 7.70799C19.9946 4.47087 16.544 2.61241 13.91 2.61241C13.1071 2.61241 12.3767 2.79453 11.7441 3.15683C9.05142 4.70978 8.44825 9.54883 9.83867 15.6216C3.8775 17.4625 0 20.4058 0 23.5078C0 26.6216 3.89708 29.5728 9.87588 31.3999C8.49721 37.4962 9.11213 42.3431 11.8107 43.8941C12.4374 44.2603 13.162 44.4326 13.9688 44.4326C16.6028 44.4326 20.0533 42.5526 23.5411 39.294C27.027 42.533 30.4775 44.3915 33.1115 44.3915C33.9144 44.3915 34.6449 44.2152 35.2774 43.853C37.9682 42.302 38.5733 37.4629 37.1829 31.3882C43.1225 29.563 47 26.6137 47 23.5078C47 20.3941 43.1029 17.4429 37.1241 15.6118C38.5028 9.52141 37.8879 4.67062 35.1893 3.11766C34.5665 2.75733 33.8439 2.5752 33.0527 2.57324ZM33.043 4.70783V4.71958C33.4836 4.71958 33.838 4.80574 34.1357 4.96828C35.44 5.71637 36.0059 8.56183 35.5653 12.222C35.4595 13.1228 35.2872 14.0726 35.0757 15.042C33.1957 14.5798 31.1473 14.2253 28.9912 13.9962C27.6987 12.2239 26.3572 10.6142 25.006 9.20416C28.1236 6.30582 31.0513 4.71566 33.0449 4.70978L33.043 4.70783ZM13.91 4.74699C15.8919 4.74699 18.8333 6.32933 21.9588 9.21199C20.6154 10.622 19.2759 12.222 18.003 13.9942C15.8351 14.2234 13.7847 14.5778 11.9067 15.0478C11.6873 14.0882 11.5248 13.16 11.4093 12.267C10.9588 8.60883 11.515 5.76533 12.8075 5.00745C13.1796 4.8312 13.5908 4.75678 13.91 4.74699ZM23.4706 10.7199C24.3617 11.6364 25.2527 12.6626 26.134 13.7827C25.2723 13.7436 24.391 13.7162 23.5 13.7162C22.5992 13.7162 21.7081 13.7357 20.8367 13.7827C21.6983 12.6626 22.5894 11.6384 23.4706 10.7199ZM23.5 15.8625C24.9492 15.8625 26.3925 15.9291 27.8123 16.0446C28.6073 17.1844 29.3828 18.4005 30.129 19.6871C30.8575 20.9405 31.5194 22.2134 32.1225 23.498C31.5194 24.7807 30.8575 26.0635 30.1388 27.3168C29.3946 28.6093 28.625 29.8391 27.8279 30.9789C26.4023 31.1022 24.957 31.1708 23.5 31.1708C22.0508 31.1708 20.6075 31.1022 19.1878 30.9887C18.3927 29.8489 17.6172 28.6308 16.871 27.3462C16.1425 26.0928 15.4806 24.8199 14.8775 23.5352C15.4708 22.2486 16.1425 20.964 16.8612 19.7087C17.6054 18.4162 18.375 17.1902 19.1721 16.0505C20.5977 15.9252 22.043 15.8586 23.5 15.8586V15.8625ZM16.3815 16.3599C15.9115 17.0982 15.4415 17.8541 15.0028 18.6316C14.5622 19.3953 14.1509 20.163 13.7593 20.9307C13.2403 19.646 12.7997 18.3652 12.4354 17.1178C13.6888 16.824 15.0106 16.5616 16.3815 16.3599ZM30.599 16.3599C31.96 16.5616 33.2721 16.8103 34.5274 17.1178C34.1749 18.3555 33.7343 19.6284 33.2349 20.9032C32.8432 20.1395 32.432 19.3699 31.9815 18.6042C31.5409 17.8365 31.0709 17.0884 30.6009 16.3599H30.599ZM36.5973 17.6818C37.5452 17.9755 38.446 18.3026 39.29 18.657C42.6819 20.1062 44.8752 22.0019 44.8752 23.5059C44.8654 25.0099 42.6721 26.9134 39.2803 28.3527C38.4578 28.7052 37.5569 29.0225 36.6267 29.3182C36.0784 27.4421 35.3616 25.4877 34.4725 23.4824C35.3538 21.4907 36.0588 19.5461 36.5973 17.6779V17.6818ZM10.3655 17.6896C10.9099 19.5696 11.6286 21.5221 12.5196 23.5254C11.6384 25.5171 10.9295 27.4617 10.3929 29.33C9.44504 29.0362 8.54421 28.7072 7.70996 28.3508C4.31813 26.9075 2.12479 25.0099 2.12479 23.5059C2.12479 22.0019 4.31813 20.0945 7.70996 18.657C8.53246 18.3045 9.43329 17.9873 10.3655 17.6896ZM33.2349 26.0713C33.7538 27.3579 34.1945 28.6406 34.5587 29.8861C33.3054 30.1936 31.9815 30.454 30.6107 30.6499C31.0807 29.9155 31.5507 29.1576 31.9913 28.3821C32.432 27.6184 32.8413 26.839 33.2349 26.0713ZM13.7593 26.1105C14.1509 26.8781 14.5622 27.6438 15.0126 28.4115C15.463 29.1752 15.9232 29.9233 16.3932 30.6499C15.0322 30.4501 13.7201 30.1995 12.4648 29.894C12.8173 28.6602 13.2599 27.3834 13.7573 26.1085L13.7593 26.1105ZM35.0933 31.96C35.3127 32.9254 35.485 33.8557 35.5908 34.7467C36.0412 38.4049 35.485 41.2484 34.1925 42.0082C33.9046 42.1845 33.5306 42.2589 33.09 42.2589C31.1081 42.2589 28.1667 40.6785 25.0412 37.7939C26.3846 36.3839 27.7241 34.7859 28.997 33.0155C31.1649 32.7844 33.2153 32.43 35.0933 31.96ZM11.9263 31.9796C13.8063 32.4378 15.8547 32.7923 18.0108 33.0214C19.3033 34.7937 20.6448 36.4035 21.996 37.8115C18.8725 40.7157 15.9408 42.3059 13.9473 42.3059C13.5164 42.2961 13.1522 42.208 12.8643 42.0474C11.56 41.3032 10.9941 38.4558 11.4347 34.7957C11.5405 33.8948 11.7148 32.947 11.9263 31.9796ZM20.8562 33.2329C21.7179 33.2721 22.5992 33.2995 23.4902 33.2995C24.391 33.2995 25.2821 33.2799 26.1535 33.2329C25.2919 34.3531 24.4008 35.3773 23.5196 36.2977C22.6285 35.3773 21.7375 34.3531 20.8562 33.2329Z" fill="#2B2B2B"/>
</svg>
