<svg width="47" height="47" viewBox="0 0 47 47" fill="none" xmlns="http://www.w3.org/2000/svg">
<g clip-path="url(#clip0_108_3930)">
<path d="M23.5 0C36.4779 0 47 10.5221 47 23.5C47 36.4779 36.4779 47 23.5 47C10.5221 47 0 36.4779 0 23.5C0 10.5221 10.5221 0 23.5 0ZM18.8294 31.3294C19.1721 32.5925 19.1349 33.7734 18.7824 34.8388L18.6551 35.1912C18.6081 35.3107 18.5532 35.4263 18.5023 35.5359C18.2282 36.1038 17.8639 36.6326 17.4155 37.1222C16.0485 38.6085 14.1411 39.1725 13.3225 38.6986C12.4413 38.1855 12.88 36.0842 14.4662 34.4099C16.1719 32.6121 18.6179 31.4548 18.6179 31.4548V31.4489L18.8294 31.3294ZM38.2384 10.06C37.177 5.88283 30.2543 4.51004 23.7037 6.8385C19.8085 8.22304 15.5883 10.3988 12.5549 13.2364C8.94567 16.6067 8.37187 19.5442 8.60883 20.772C9.44504 25.1019 15.3788 27.9337 17.8189 30.035V30.0467C17.1002 30.3992 11.8342 33.041 10.6005 35.7748C9.27858 38.6536 10.8061 40.7118 11.8048 40.9742C14.8892 41.828 18.0617 40.2692 19.7655 37.7449C21.4105 35.2755 21.2655 32.103 20.5566 30.5461C21.528 30.2817 22.6716 30.1642 24.1404 30.3424C28.2548 30.8124 29.0773 33.3974 28.8991 34.4549C28.7229 35.5105 27.8749 36.1273 27.5792 36.3036C27.2855 36.4818 27.1973 36.5386 27.2248 36.658C27.2541 36.8343 27.403 36.8343 27.636 36.8049C27.9591 36.7462 29.7823 35.9237 29.8705 33.9242C29.9586 31.398 27.5479 28.5799 23.2611 28.6367C21.4986 28.668 20.3804 28.8149 19.5892 29.138C19.5305 29.0499 19.4697 28.9912 19.3836 28.9324C16.7398 26.083 11.8342 24.0855 12.0398 20.2962C12.0986 18.9155 12.598 15.275 21.4398 10.8688C28.6955 7.25367 34.4843 8.25438 35.483 10.4575C36.9185 13.5987 32.3967 19.4463 24.8473 20.2962C21.9686 20.6193 20.4705 19.505 20.0866 19.0918C19.6773 18.6512 19.6186 18.6218 19.4717 18.7119C19.2367 18.8294 19.3836 19.2113 19.4717 19.4463C19.7067 20.0338 20.6173 21.0619 22.2055 21.5906C23.5842 22.0312 26.9643 22.2937 31.018 20.7094C35.5692 18.9488 39.1236 14.0413 38.0955 9.92875L38.2384 10.06Z" fill="#2B2B2B"/>
</g>
<defs>
<clipPath id="clip0_108_3930">
<rect width="47" height="47" fill="white"/>
</clipPath>
</defs>
</svg>
