<svg width="46" height="46" viewBox="0 0 46 46" fill="none" xmlns="http://www.w3.org/2000/svg">
<g clip-path="url(#clip0_108_3927)">
<path d="M23.002 9.19995C16.8686 9.19995 13.0353 12.2666 11.502 18.4C13.802 15.3333 16.4853 14.1833 19.552 14.95C21.3019 15.387 22.5515 16.6558 23.9373 18.0626C26.1932 20.3511 28.8018 23 34.502 23C40.6353 23 44.4686 19.9333 46.002 13.8C43.702 16.8666 41.0186 18.0166 37.952 17.25C36.202 16.813 34.9524 15.5441 33.5666 14.1373C31.3126 11.8488 28.704 9.19995 23.002 9.19995ZM11.502 23C5.36862 23 1.53529 26.0666 0.00195312 32.2C2.30195 29.1333 4.98529 27.9833 8.05195 28.75C9.80187 29.187 11.0515 30.4558 12.4373 31.8626C14.6932 34.1511 17.3018 36.8 23.002 36.8C29.1353 36.8 32.9686 33.7333 34.502 27.6C32.202 30.6666 29.5186 31.8166 26.452 31.05C24.702 30.613 23.4524 29.3441 22.0666 27.9373C19.8126 25.6488 17.204 23 11.502 23Z" fill="#2B2B2B"/>
</g>
<defs>
<clipPath id="clip0_108_3927">
<rect width="46" height="46" fill="white"/>
</clipPath>
</defs>
</svg>
